<?xml version="1.0" standalone="no"?>
<!DOCTYPE svg PUBLIC "-//W3C//DTD SVG 1.1//EN" "http://www.w3.org/Graphics/SVG/1.1/DTD/svg11.dtd" >
<svg xmlns="http://www.w3.org/2000/svg">
<metadata></metadata>
<defs>
<font id="kramerregular" horiz-adv-x="1560" >
<font-face units-per-em="2048" ascent="1706" descent="-342" />
<missing-glyph horiz-adv-x="1087" />
<glyph horiz-adv-x="0" />
<glyph horiz-adv-x="682" />
<glyph unicode=" "  horiz-adv-x="1087" />
<glyph unicode="&#x09;" horiz-adv-x="1087" />
<glyph unicode="&#xa0;" horiz-adv-x="1087" />
<glyph unicode="!" horiz-adv-x="354" d="M57 1323h240l-94 -989h-94zM61 98q0 -49 34 -80.5t81 -31.5q49 0 82 31.5t33 80.5q0 47 -34 81t-81 34q-49 0 -82 -34t-33 -81z" />
<glyph unicode="&#x22;" horiz-adv-x="641" d="M57 1327q0 -16 35 -45q37 -29 37 -47q0 -31 -45 -82q10 -4 63 18q54 25 62 33l41 41q37 39 37 82q0 47 -35 81t-80 34q-49 0 -82 -34t-33 -81zM356 1327q0 -16 35 -45q37 -29 37 -47q0 -29 -47 -82q10 -4 63 18q56 25 64 33l41 41q37 39 37 82q0 47 -35 81t-80 34 q-49 0 -82 -34t-33 -81z" />
<glyph unicode="'" horiz-adv-x="323" d="M49 1327q0 -16 35 -45q37 -29 37 -47q0 -31 -45 -82q10 -4 63 18q54 25 62 33l41 41q37 39 37 82q0 47 -35 81t-80 34q-49 0 -82 -34t-33 -81z" />
<glyph unicode="," horiz-adv-x="323" d="M49 98q0 -16 35 -45q37 -29 37 -47q0 -31 -45 -82q8 -2 63 23q52 20 62 30q6 6 16 15.5t25 23.5q37 39 37 82q0 47 -35 81t-80 34q-49 0 -82 -34t-33 -81z" />
<glyph unicode="." horiz-adv-x="337" d="M53 98q0 -49 34 -80.5t81 -31.5q49 0 82 31.5t33 80.5q0 47 -34 81t-81 34q-49 0 -82 -34t-33 -81z" />
<glyph unicode=":" horiz-adv-x="342" d="M55 98q0 -49 34 -80.5t81 -31.5q49 0 82 31.5t33 80.5q0 47 -34 81t-81 34q-49 0 -82 -34t-33 -81zM55 627q0 -47 34 -81t81 -34q49 0 82 34t33 81t-34 81.5t-81 34.5q-49 0 -82 -34.5t-33 -81.5z" />
<glyph unicode=";" horiz-adv-x="339" d="M47 98q0 -16 35 -45q37 -29 37 -47q0 -31 -45 -82q8 -2 63 23q52 20 62 30q6 6 16 15.5t25 23.5q37 39 36 82q0 47 -34.5 81t-79.5 34q-49 0 -82 -34t-33 -81zM63 627q0 -47 34 -81t81 -34q49 0 82 34t33 81t-34 81.5t-81 34.5q-49 0 -82 -34.5t-33 -81.5z" />
<glyph unicode="?" horiz-adv-x="1048" d="M57 98q0 -49 34 -80.5t81 -31.5q49 0 82 31.5t33 80.5q0 47 -34 81t-81 34q-49 0 -82 -34t-33 -81zM102 713l2 -441q14 -20 54 -20l11 2t26.5 3t31 3t25.5 2v256l10 19q147 27 264 68.5t222 109.5q66 57 170 151.5t104 204.5q0 31 -12 72q-90 158 -251 218t-378 60 q-72 0 -133.5 -4t-143.5 -12q0 -68 2.5 -116t6.5 -75l180 5q25 0 50.5 1t51.5 1q184 0 267 -41q80 -39 118 -119q0 -66 -56 -112t-138 -101q-82 -57 -215 -96q-129 -39 -269 -39z" />
<glyph unicode="A" horiz-adv-x="1603" d="M63 -168l1446 -8l31 16q0 426 -4 844t-4 848h-156q-86 0 -194 -2h-234q-127 0 -276 -2h-594q0 -123 -1 -260.5t-3 -293t-3 -309t-3 -307t-3.5 -284.5t-1.5 -242zM143 1458q20 16 35 19.5t33 3.5q8 0 55 -8q27 -4 47.5 -6.5t34.5 -2.5q20 0 39 6l1057 -10l20 -20 q2 -131 2 -262v-258q2 -129 2 -265q0 -135 2.5 -276t2.5 -260v-217l-1272 2l-51 20zM195 1438q0 -381 4 -747.5t4 -735.5l1212 2l23 -8q0 139 -6 438q-6 303 -12 557t-5 483zM242 958v56q0 47 2 131q2 86 3 142t1 89h149q88 0 203 -2t199 -2h143q-207 -74 -405 -260 q-199 -184 -285 -395q-6 53 -8 109.5t-2 131.5zM246 315q0 248 113.5 465t318.5 377q86 53 161.5 92t141.5 68q135 55 285 55q12 0 33.5 -2t39.5 -2l13 -18q0 -82 1 -185.5t3 -232.5q4 -129 6 -244t4 -219t3 -219t1 -244h-182l-19 598q-174 2 -345 4t-332 2 q-66 -125 -66 -286q0 -164 53 -301q-18 -4 -50 -7.5t-56 -3.5q-63 0 -86 23q-41 145 -41 280zM262 1155q0 -10 1 -47t3 -102q2 -63 3 -115.5t1 -93.5l72 145q-10 31 -35 19q-4 -10 -10 -21.5t-10 -21.5q0 2 -8.5 18t-6.5 27q10 45 52 45q-2 0 18 -4q27 -14 23 -46 q125 147 243.5 252t255.5 152l-592 -16q-6 -47 -8 -90.5t-2 -100.5zM295 1208q0 45 36 77t83 32q29 0 43 -8q4 -8 4 -23v-29q0 -30 20 -36q45 49 74 72.5t59 23.5q29 0 58 -31q-6 -8 -17 -8q-10 0 -28.5 12.5t-26.5 12.5q-6 0 -20 -11q-10 -10 -56 -80q-42 -71 -85 -71h-1 h-10t-16 2q-2 2 -5.5 10t-11.5 25q-12 31 -37 26q-20 -12 -20 -41l12 -67q16 -14 25.5 -30.5t23.5 -45.5q-33 10 -57.5 42t-32.5 58q-14 55 -14 88zM496 301q0 82 13 143.5t44 106.5q55 0 111.5 1t113.5 1q104 0 180 -4t150 -14l-4 -529h-529q-43 43 -61 133q-4 41 -9 81 t-9 81zM516 322q0 -78 17.5 -156t50.5 -135l501 -13v105q0 63 -2 147t-2 146v102l-493 21l-43 -21q-29 -96 -29 -196zM543 248h22q-12 -10 -12 -23q0 -6 1 -14t3 -18q8 -14 23 -15q4 0 24.5 6t30.5 2q29 -29 42 -51t9 -47q-8 27 -22.5 31t-51.5 4q-27 0 -40 4t-21 23z M582 375q0 14 3 31.5t9 29.5q14 20 32.5 35.5t39.5 15.5q20 0 32 -14q-14 -37 -30.5 -78t-16.5 -71q0 -6 4 -27l50 -121q-45 53 -72 86t-35 47q-16 29 -16 66zM616 795q47 0 114 1t159 3q180 6 270 6l8 8q0 12 -1 52t-3 107.5t-7 116.5t-15 82q-10 -4 -32 -11t-51.5 -17 t-61 -23.5t-58.5 -29.5q-29 -16 -73 -43t-107 -66q-127 -74 -142 -186zM713 141l16 -49v-20zM717 442q0 14 6 43q0 7 -4 19q20 -6 24.5 -34t8.5 -67q-35 8 -35 39zM719 262q0 18 2 34.5t6 27.5q19 30 58 30h3q16 0 49 -6t46 -6q23 0 40 12.5t25 42.5q2 9 2 18q0 45 -41 91 q23 2 39.5 -16.5t20.5 -36.5q0 -49 -8.5 -89t-38.5 -67q-23 -23 -103 -25q-82 0 -82 -41q0 -16 11 -47q-16 8 -22.5 27.5t-6.5 50.5zM721 870q68 70 160.5 123t203.5 88l15 -22l-2 -185h-80q-45 0 -106.5 -2t-108.5 -2h-82zM752 485q0 9 10 19q31 -14 65 -27q18 -12 19 -39 q2 -31 -25 -45h-12q12 8 12 25q0 29 -33 43q-18 2 -27 9t-9 15zM768 184q0 4 4 22.5t14 31.5q2 -27 6.5 -57.5t4.5 -53.5q0 -28 -6 -61q0 2 -13 49q-4 25 -7 42t-3 27zM786 887h289l-6 170q-76 -37 -157 -76t-126 -94zM819 78q0 86 66 147q4 1 9 1q27 0 44 -34 q20 -38 41 -38q6 0 22 6q49 33 50 94q0 29 -17 51q-16 16 -30 17q-12 0 -21 -9l-25 -26q0 4 1.5 11t3.5 21q5 27 32 21q35 4 50.5 -14.5t25.5 -53.5q0 -96 -61 -159q-23 -10 -38.5 -16.5t-31.5 -6.5q-20 0 -29 8q-10 10 -21 23.5t-22 13.5q-14 -1 -32 -31q-13 -23 -13 -49 q0 -9 2 -18q-6 20 -6 41zM850 911q37 68 131 68q-1 -5 -1 -9q0 -32 42 -32q25 0 35 18q4 -8 -1 -18t-14.5 -19.5t-22.5 -16.5t-26 -7q-10 -8 -24 -8q-16 0 -17 26v19q0 27 -20 26h-6t-17 -4q-4 0 -10 -8t-13 -17t-16.5 -15.5t-19.5 -2.5zM938 37q6 18 22.5 27.5t36.5 9.5 q47 0 64 -31q-6 2 -23.5 5t-42.5 3q-12 0 -27.5 -2t-29.5 -12zM1026 426v27q16 0 18 -9q0 -16 -8 -18h-10z" />
<glyph unicode="B" horiz-adv-x="1574" d="M63 1530l5 -1690l1443 -8q0 88 -2 214t-6 294q-6 336 -11 623.5t-5 562.5l-1407 10zM121 1475l20 12l1284 -23q0 -168 7 -477q6 -307 12 -572t6 -519q-332 2 -663.5 4t-659.5 2zM174 1434l6 -1467l15 -22l1212 -11l-16 1489zM236 1376h43t112 2q76 2 135 2h109 q129 0 241.5 -7t231.5 -25q51 -31 85 -73t34 -91q0 -66 -35 -126.5t-133 -139.5v-23q2 -6 141 -176t139 -293q0 -39 -10 -77t-35 -77q-104 -131 -268 -202q-164 -68 -518 -68q-63 0 -127 1t-125 1q0 109 -6 395.5t-10 529t-4 447.5zM428 471q10 -16 13 -28.5t3 -43.5 q0 -4 -1 -18t-3 -36.5t-3 -41t-1 -31.5q0 -45 14.5 -68.5t55.5 -23.5h12q10 0 21 2q238 0 389 43q156 47 207 211q-41 80 -78 131q-35 51 -170 213q-47 -27 -92 -54.5t-92.5 -58t-115 -79.5t-159.5 -117zM438 963q2 -72 2 -127v-97q39 23 80 48.5t82 54.5q43 29 94.5 63.5 t110.5 75.5t102 71.5t70 47.5v57l-541 12v-206zM489 446l379 267l189 -269q0 -74 -62.5 -111.5t-163.5 -68.5q-41 0 -116 -6q-78 -6 -115 -6q-51 0 -90 6q-10 25 -12 37t-2 35q0 12 1 24.5t1 26.5q0 8 -2 30.5t-7 34.5zM489 842v256q35 6 66 8t76 2q4 0 29.5 -1t72.5 -3 t80 -2h55q-74 -70 -174 -137.5t-205 -122.5zM502 963q0 -41 16 -78q86 45 156.5 95t140.5 110h-33q-18 0 -39.5 1t-42.5 1h-30q-55 0 -92 -4.5t-68 -14.5q0 -2 -1 -13t-3 -33.5t-3 -38t-1 -25.5zM508 330q0 -37 21.5 -48.5t66.5 -11.5q20 0 58 3t53 3q18 0 30 -4 q94 0 178 43t117 121l-174 242q-20 -16 -60 -45t-99.5 -70t-104.5 -73.5t-78 -59.5v-55q-8 -27 -8 -45zM524 979v61h8q2 -2 5 -2q-6 -12 -7 -18q1 -10 11 -14q4 4 17 12t34 22q39 27 61 27q18 0 26.5 -12.5t8.5 -42.5q-45 -27 -64.5 -37t-45.5 -17q2 6 34 19q31 14 31 35 q-10 6 -16 6t-16.5 -7t-21.5 -15.5t-23.5 -15.5t-20.5 -7q-12 0 -21 6zM541 385q0 31 26.5 46.5t65.5 33.5l-33 -49q39 -20 84 -37q27 -14 27 -45q0 -6 -1 -18.5t5 -14.5q-16 23 -47 23q-2 0 -30 -3.5t-40 -3.5q-35 0 -46 25t-11 43zM658 494q-2 5 -2 10q0 8 6 14 q14 -20 14 -39q-12 1 -18 15zM709 471q0 33 14 61q12 16 22.5 21.5t26.5 5.5h19q10 0 26 -2q18 0 35 10l-27 62h5q43 0 63 -62q0 -47 -16.5 -84t-51.5 -55q-10 0 -30 27q-23 29 -29 28q-12 0 -21 -26l11 -150q-20 49 -33.5 87t-13.5 77zM791 311q-1 9 -1 17q0 24 8 47 q11 31 42 35q8 2 22.5 -1t27.5 -8.5t24.5 -10.5t17.5 -5q23 0 39 37q1 6 1 13q0 38 -22 63l-41 -9q6 23 31 23q33 0 42 -19.5t9 -39.5q0 -49 -28.5 -85t-75.5 -49l-70 35zM1044 0q86 55 138.5 90t72.5 49q37 29 84 82l-8 -229zM1114 8h199v164q-12 -16 -40 -39.5t-71 -56.5 q-86 -63 -88 -68zM1149 909q68 63 103.5 128t35.5 139q0 37 -8 67q-8 33 -43 76q-16 23 -26.5 37t-14.5 18l133 -4l10 -708zM1186 909l121 -166v39q0 37 2 107q2 72 3 122t1 81q0 61 -3 127.5t-7 101.5q-4 37 -35 37l-31 4q2 -12 33 -53q29 -35 28 -58q8 -29 10.5 -47 t2.5 -33q0 -76 -33 -139t-92 -123zM1202 51q8 4 29.5 0t25.5 -4q16 0 29 21q0 8 -13 18t-3 18q29 -10 35 -18l4 -14q0 -16 -17.5 -25.5t-40.5 -13.5q-10 4 -26.5 9t-22.5 9zM1219 936q6 6 12 17.5t14 20.5q7 9 19 13q5 2 10 2q7 0 14 -4v-16q-10 10 -14 10 q-10 -8 -18.5 -14.5t-18.5 -14.5q4 -16 33 -37q30 -17 30 -31q0 -11 -22 -34q-4 -2 -9 -2t-11 3q-10 5 -21 17q16 10 16 35z" />
<glyph unicode="C" horiz-adv-x="1531" d="M63 1530l7 -35l-2 -1649h1400l-12 1680zM109 1395q0 45 19 60t58 15q18 0 48 -3t53 -3q33 1 53 11l1069 -5q14 -166 19.5 -349t5.5 -392q0 -18 -1 -106t-3.5 -248t-2.5 -271v-174l-12 -26l-1298 12zM164 1430q0 -176 6 -461q2 -141 6 -272.5t6 -254.5t4 -242.5t2 -238.5 q51 0 138.5 -1t210.5 -3q125 -2 235.5 -4t208.5 -4q100 -2 199.5 -3t201.5 -1l-30 1454l-11 26zM215 797q0 88 43 221q43 131 199 244q158 114 348 114q68 0 135.5 -18.5t127.5 -52t109.5 -80.5t84.5 -103q-10 -16 -18.5 -27.5t-22 -22.5t-32 -25.5t-46.5 -32.5 q-70 80 -162 127t-197 47q-27 0 -47 -2t-69 -12q-45 -8 -117 -66q-66 -51 -107 -123q-29 -41 -39 -82t-10 -92q0 -74 27 -152.5t67 -146.5q123 -172 309.5 -249t415.5 -77q-14 -49 -44.5 -95t-71.5 -89q-121 0 -233.5 24.5t-211 75t-179.5 125t-136 172.5q-59 88 -91 190.5 t-32 207.5zM217 1092v280l285 2q-76 -45 -153 -120.5t-132 -161.5zM233 1253l9 -94q12 23 26.5 43.5t38 44t56 49t79.5 60.5l-202 -2l-7 -74q4 16 23.5 41t50.5 16q51 -8 51 -20q-18 -10 -36.5 -18.5t-34.5 -18.5q-31 -18 -31 -43q0 -14 2 -18q-10 0 -14 10t-11 24zM236 362 q8 -49 12 -73q2 -10 2 -31v-49v-35q0 -20 -2 -49t-2 -53v-39l24 -17q4 0 12.5 1t18.5 3h31q6 0 24.5 -1t51 -3t58.5 -3t46 -1t43 2t39 4q-104 70 -198.5 168.5t-159.5 208.5v27q90 -121 186 -236q102 -119 246 -170l-422 -2zM262 109q-1 4 -1 8q-1 18 19 45q24 33 25 49 q0 19 -29 31q9 2 16 2q28 0 38 -29q0 -10 -25 -49q-23 -39 -22 -53q0 -25 32 -39q25 0 31 37q8 39 33 39q25 -4 43 -39t43 -35q-31 -41 -86 -41q-14 2 -31.5 5t-34 11t-30 21.5t-21.5 36.5zM457 786q0 123 55 201q55 80 126 109.5t153 29.5q33 0 56 -3t52 -11 q31 -10 57.5 -24.5t52 -36t54.5 -52t65 -71.5q55 45 103.5 84t79.5 55q0 -98 6 -315t11 -401.5t5 -346.5h-135q6 35 57 113q51 82 52 129q-25 8 -58 8q-10 0 -28.5 -2t-38 -3t-39 -3t-31.5 -2q-207 0 -389 114q-180 113 -223 240q-43 125 -43 188zM489 805 q0 -70 21.5 -140.5t52.5 -125.5q104 -135 262 -203t338 -68q76 0 144 13q0 84 -7 223q-2 72 -4 135t-4 121q-2 59 -3 123.5t-1 136.5q-43 -31 -78.5 -57.5t-54.5 -49.5q-20 -20 -43 -20q-27 0 -65 68q-41 68 -64 79q-78 61 -186 62q-80 0 -147.5 -32t-112.5 -91 q-25 -41 -36.5 -82t-11.5 -92zM512 846q0 51 23.5 96t60.5 62q27 16 57 16q23 0 60 -10q23 27 46 53.5t54 15.5q-17 1 -37 -31q-16 -25 -15 -63q0 -11 1 -24v-7q0 -48 -72 -77l-59 -15l-6 56q-8 8 -23 8q-18 0 -35.5 -19.5t-23.5 -38.5q0 -45 23.5 -105.5t45.5 -113.5 q-39 20 -63 78q-8 25 -16.5 49.5t-18.5 48.5q0 12 -2 21zM571 569q0 6 2.5 13.5t6.5 9.5q18 29 57 29q53 0 80 -33q2 -14 -5 -15.5t-16 -1.5q-14 0 -16 -6l-64 -59q-20 12 -32.5 27.5t-12.5 35.5zM633 795q14 -10 29 -11q29 0 53 21.5t39 58.5q8 20 17 46t24 61q26 66 96 82 q31 -12 44 -23.5t17 -23.5q-10 -6 -18 -27h-14q8 8 8 18q0 12 -14.5 23.5t-24.5 11.5q-8 0 -17 -6q-20 -14 -29 -36.5t-9 -49.5q0 -35 14 -63q12 -23 29.5 -50.5t17.5 -50.5q0 -18 -14 -33q-35 0 -54.5 -29.5t-46.5 -72.5q-2 -10 -2 -43q10 -57 19.5 -112.5t19.5 -112.5 q-23 72 -43 142.5t-41 141.5q-33 94 -100 138zM680 539q41 -8 58.5 -49t37.5 -103q-25 16 -53 76q-29 62 -43 76zM809 514q41 -35 59.5 -82t18.5 -108h-10q0 45 -31 106q-33 68 -37 84zM840 549q0 90 24 125q31 37 74 57q49 25 55 62q2 20 -24 63q-27 45 -27 62q1 20 19 43 q10 6 22 11t27 -1q-16 -23 -17 -37q0 -18 51 -55q25 -18 38.5 -31.5t19.5 -25t7 -23t1 -23.5q0 -37 -19.5 -70.5t-56.5 -43.5q-61 -10 -118.5 -51.5t-73.5 -96.5q-2 8 -2 35zM842 379l8 -6v-19zM911 414q0 27 5.5 55.5t17.5 46.5q39 53 96 53q63 0 88 -51q-4 -16 -12 -42.5 t-8 -51.5q0 -27 8 -45q-29 -4 -42 16.5t-20 36.5q-2 10 -2 21q0 12 -2 28q-2 31 -30 27q-33 0 -52 -41q-14 -39 -24 -45q-4 -14 -4 -33v-35q0 -27 -2 -32q-16 33 -17 92zM981 334q0 25 10 41t31 16q-2 -8 -17.5 -36t-21.5 -42q-2 2 -2 21zM1067 1376h221q10 -51 13.5 -99 t3.5 -103q-43 59 -104.5 108t-133.5 94zM1077 590q6 10 18.5 26.5t30.5 42.5q52 83 52 146q-6 14 -7 31q0 78 84 94q-53 -41 -53 -107q0 -27 14.5 -56.5t30 -62t26.5 -69.5q8 -27 8 -57q0 -11 -1 -23q0 -57 -23 -115l-36 -24q10 25 10 57q2 31 -7.5 54.5t-23.5 38 t-30.5 20.5t-28.5 4h-19q-10 0 -26 -2q-10 0 -19 2zM1126 313q0 12 9.5 40t9.5 42q-1 23 -17 39q25 0 43.5 -11t40.5 -42l-14 -59q8 -8 21 -9q12 0 30.5 9.5t22.5 9.5q-31 -47 -98 -47q-18 0 -44 8q-4 8 -4 20zM1126 1358l158 -127l-6 127h-152zM1219 1343l34 -43q8 6 9 25 l8 -2q0 -23 -17 -33q-20 0 -25 12t-9 41zM1231 20l82 3l2 149z" />
<glyph unicode="D" horiz-adv-x="1542" d="M61 1530q0 -176 7 -508q6 -330 12 -615.5t6 -556.5q78 0 181.5 -1t236.5 -3q135 -4 254 -6t229.5 -4t232 -3t259.5 -1q0 109 -1 239t-3 285.5t-4.5 309t-4.5 309t-2 285.5v239l-12 23l-1380 14zM131 985v488l1262 -11q0 -98 1 -221t3 -270q4 -147 6 -280.5t4 -252.5 t3 -253t1 -287q-106 2 -211 2q-104 0 -210.5 2t-215.5 2h-225h-397l-13 26q-2 125 -2 252t-2 256t-2 264q0 137 -2 283zM180 946q2 -125 2 -256q0 -129 2 -270t2 -258v-213q57 0 143.5 -1t203 -3t222 -4t201.5 -4q98 -2 198.5 -3.5t209.5 -1.5q0 92 -1 205t-3 254t-3 261 t-3 220.5t-2 237.5v311l-1172 15v-490zM227 1368l11 4q51 6 100 6q291 0 532 -149q246 -150 324 -309q82 -162 96 -238q16 -82 17 -154q0 -98 -26 -183t-83 -146q-100 -121 -251.5 -167t-340.5 -46q-78 0 -177 9t-183 19q0 162 -6 418q-2 129 -4.5 246t-4.5 221.5t-3 221 t-1 247.5zM430 1153q0 -33 1 -63.5t1 -61.5v-20v-25v-27v-30v-37v-41v-45v-53v-62v-72v-81v-95v-108v-127l14 -19h15q29 -2 57 -2h57q152 0 258.5 22.5t186.5 96.5q41 53 59.5 115.5t18.5 136.5q0 117 -70 248q-68 135 -235 241q-166 104 -363 127v-18zM492 260v844 q86 -16 164.5 -51t146 -85t121 -116t86.5 -141q31 -66 30 -142q0 -143 -82 -237q-74 -61 -165 -77.5t-230 -16.5h-57zM514 279l10 -11q182 0 278.5 18.5t170.5 110.5q33 51 33 142q0 37 -7 77q-43 168 -176 295q-131 125 -305 156zM528 975q1 15 9 29q53 -55 73.5 -117 t20.5 -142q0 -29 -6.5 -81t-20.5 -129q-25 -154 -24 -216q-2 8 -2 21v31q0 14 2 38.5t6 61.5t7 64.5t3 48.5l-1 9q-1 9 -2 21.5t-2 24.5t-1 20q-33 12 -43 27.5t-10 36.5q0 8 3 24.5t7 33t7 32.5t3 29q0 23 -8 37q2 20 -9.5 51t-11.5 45zM532 313q6 25 7 43v31v29v63 q0 98 20 160l-12 -338zM604 985q0 9 6 19q8 -31 88 -54q78 -18 78 -59q0 -8 -2 -19.5t-6 -19.5q14 -20 37 -21q8 0 20 5q-14 -39 -57 -39q-6 0 -19.5 2t-27.5 4t-25.5 4t-17.5 2q-10 0 -27 -4q-10 14 -10 22q0 4 6 13.5t12.5 20.5t11.5 21.5t5 16.5q-2 4 -39 39 q-33 31 -33 47zM606 285q0 160 25 264q27 106 80 131q51 27 67 27q20 0 41 -33t37 -33q8 0 18 2q18 20 29.5 43t11.5 45q0 18 -8 33l-30 35q8 4 16 4q10 0 20.5 -10.5t17.5 -25.5t12 -31.5t5 -30.5q0 -20 -10 -48t-39 -73q-23 -25 -48.5 -40.5t-49.5 -15.5q-20 0 -35 9 q-12 8 -12 45q0 29 -21 36q-41 -6 -65 -63q-20 -51 -35 -70zM627 340q0 18 10 45t22 59q29 33 53.5 51.5t53.5 18.5q16 0 41 -10q37 -27 55.5 -37t44.5 -10q20 0 41 10q25 20 25 59q0 23 -6 39q27 -18 26 -49q-4 -23 -10 -43t-10 -41q-27 -25 -41 -33t-33 -8q-14 0 -33 8 q-18 16 -34.5 34t-32.5 26q-6 -16 -6 -33v-12q0 -6 2 -17q0 -16 -6.5 -27.5t-14.5 -17.5l-86 -41q0 16 37 51q37 33 37 50q0 16 -14.5 30.5t-30.5 14.5q-8 0 -25 -4q-37 -43 -46 -69t-9 -52q0 -4 1 -12.5t3 -18.5q-14 14 -14 39zM760 1366l18 2l508 -4q0 -10 6 -166 q4 -78 6 -138.5t2 -101.5q0 -33 -2 -67.5t-4 -56.5q-78 174 -219 312t-315 220zM813 350v10q0 7 2 17q2 14 21 14q14 0 20 -14l-22 -43q-20 -2 -21 16zM838 1350q137 -70 251.5 -180.5t194.5 -245.5l-20 417zM979 1303q-4 2 -4 5q0 5 8 14q14 15 37 13q6 2 22 2q27 0 72 -32 q47 -33 72 -33q14 0 39 10q41 -41 41 -98q0 -25 -9 -41q-2 -23 -21 -34t-42 -11l-18 4q18 0 32.5 13t26.5 28q2 2 2 14q0 39 -33 51q-33 -12 -49 -15t-29 -3q-25 0 -43 12q-18 14 -20 70q-2 57 -37 57q-4 0 -11 -1t-18 -3zM1012 -6q33 20 71.5 47t85.5 59q98 70 138 168 l-2 -284zM1079 8l199 -8l12 31l-4 166q-61 -76 -107 -121t-100 -68zM1163 16v15q8 -2 17 -2h16q16 0 23 12q-6 14 -7 29q0 30 41 53q-2 -6 3.5 -14.5t12.5 -16.5t11 -17q2 -4 2 -7q0 -5 -4 -11q-37 -43 -92 -43q-16 0 -23 2zM1210 1063q14 -4 32 -10t20 -23l-5 -22l-6 9 t-13 18t-15.5 18.5t-12.5 9.5z" />
<glyph unicode="E" horiz-adv-x="1566" d="M63 1522q0 -61 1.5 -182t3.5 -306q6 -365 11 -670t5 -522l1419 -10q0 111 -1 244t-3 292.5t-4 317.5t-4 317.5t-2 290.5v238q-82 0 -190.5 -1t-249.5 -3q-139 -2 -258 -2q-117 0 -215.5 -2t-225.5 -2h-287zM123 1460l20 15h1268l14 -21v-176q0 -111 2.5 -270.5 t3.5 -294.5t3 -248t2 -250v-301h-19h-129h-20h-25h-26h-33h-39h-41h-49h-56h-63h-74h-84h-94h-109h-122h-138h-153l-17 20q0 143 -6 451q-6 309 -11 571.5t-5 503.5zM164 1432l22 -1477l1209 -4q0 162 -6 448q-2 143 -4.5 272.5t-4.5 246t-3 244.5t-1 270h-1212zM229 1354 q0 18 7 26q4 5 13 5q7 0 17 -3l768 -12q29 -39 49 -88q8 -23 16.5 -45.5t18.5 -44.5l-684 -8l-16 -17l10 -276l21 -14l626 4q-12 -41 -46 -87t-66 -89l-525 -7l-12 -18l2 -485l51 -21l850 6q2 -10 3 -18t1 -12v-21v-14t-2 -35t-2 -41v-29l-1073 2q0 47 -2 137.5t-6 225.5 t-6 250.5t-6 220.5q-2 104 -3.5 213.5t-1.5 228.5q2 8 2 25q0 16 -4 41zM485 1065q0 31 9 47q49 4 99 7t101 3q80 0 158 -2t158 -2q57 0 110.5 3t106.5 7q-31 61 -64 130t-33 118l185 -4l12 -24l4 -1092l-825 -10q0 10 -1 50t-3 107.5t-3 124t-1 101.5l499 8l209 289l-22 14 q-55 0 -141.5 1t-202.5 3q-233 6 -340 6q0 18 -7.5 57.5t-7.5 57.5zM510 1028q0 -39 14 -67l693 -3l30 -26l-231 -311l-486 -11l-4 -321l15 -21q39 0 325 6q143 4 253 6.5t188 2.5v18q0 29 1 59.5t1 61.5v20v23q0 55 -2 87t-4 46l-43 -49q-16 -12 -37 -12q-39 2 -57.5 14 t-24.5 26.5t-7 26.5t-4 14q0 27 29 44q6 8 6 18q0 12 -20.5 33.5t-24.5 34.5q0 25 17.5 34t42.5 9h12t18 -3q34 -18 52 -48q16 -27 16 -60v-8q-8 -31 -53 -51q-43 -18 -49 -37q2 -8 17 -10.5t19 -8.5q4 -1 8 -1q28 0 48 36q23 37 28 43l9 -4l-7 651q8 16 9 37q0 35 -39 35 q-41 -6 -72 -11t-43 -3q25 -59 52.5 -118t56.5 -114q-47 -8 -90.5 -12t-77.5 -8q-35 -2 -84 -3t-113 -1q-98 2 -191.5 4t-185.5 2q-10 -35 -10 -70zM551 457q16 -33 51 -65t82 -73q-10 6 -20 7q-6 0 -16.5 -3.5t-22 -8.5t-20.5 -8t-13 -3q-23 0 -31 27zM551 977q-1 5 -1 11 q0 39 62 97h25zM553 594q39 -47 76 -90t66.5 -82t47 -74t17.5 -65q-14 31 -113 133q-94 100 -94 178zM602 983q84 109 225 109q82 0 157 -26t161 -73q2 2 29 8q31 10 32 25q-16 33 -24 43q-6 -2 -19.5 0t-15.5 -8v-10q-12 -4 -14 4q-4 16 6 22t20 10q35 -4 55.5 -15 t20.5 -38q-16 -67 -84 -67h-2q-55 0 -196.5 43t-188.5 43q-94 0 -162 -70zM659 575q1 17 9 33q20 -23 28.5 -37t8.5 -36q0 -4 -1.5 -9.5t-3.5 -13.5q-41 16 -41 63zM670 975q0 23 35 33q37 10 45 14q45 0 76.5 -9t58.5 -34q-27 2 -57.5 6t-57.5 4q-25 0 -53.5 -4t-46.5 -10z M709 449q4 14 7 27t7 28q20 20 28.5 25.5t24.5 -1.5l35 70q-14 -27 -14 -61q0 -35 32 -113q35 -82 35 -115q0 -10 -2 -18q-27 55 -51.5 116.5t-34.5 120.5q-27 -14 -43 -35.5t-16 -46.5q0 -4 4 -24q-12 12 -12 27zM748 446q29 -23 44 -62.5t29 -78.5q-14 18 -41 74 q-14 29 -21 46t-11 21zM834 549q16 14 43 14q39 0 74.5 -28.5t41.5 -67.5q8 -18 8 -41q0 -27 -14 -53.5t-53 -75.5q6 27 10 44t6 28.5t3 19.5t1 21q0 25 -7 46t-27 42q-18 20 -36.5 29.5t-49.5 21.5zM883 419q0 39 28 56l-10 -172q2 4 -8 47q-10 47 -10 69zM973 541 q8 18 24 23.5t41 15.5q72 0 119 -41q18 -25 19 -50q0 -12 -1 -19t-5.5 -15.5t-12.5 -20.5t-20 -31q-16 -6 -26.5 -22t-8.5 -35q2 -2 14 -2q27 0 74 55q49 55 65 56q23 0 23 -78l-37 -66q-4 4 -4 13q0 12 10 32.5t10 28.5q0 10 -18 21q-31 -6 -65 -56q-35 -47 -70 -47h-6 q-4 0 -13 2q-32 17 -32 51q0 20 8 39t20 35q14 14 18.5 30.5t4.5 45.5q-20 23 -42 32t-50 9q-20 0 -39 -6zM1196 1307q8 8 23 8q49 0 59 -49q-8 16 -31.5 27.5t-50.5 13.5zM1210 1266q8 -14 22.5 -22.5t24.5 -8.5t21 10l-8 -26l-15 -5q-25 0 -38 14q-9 10 -9 24q0 7 2 14z M1212 823q16 18 34 37t18 33q-1 8 -7 18q8 3 13 3q8 0 12 -8q3 -8 4 -16q0 -6 -2 -13q2 -6 2 -11q0 -13 -11 -25q-15 -16 -38 -20z" />
<glyph unicode="F" horiz-adv-x="1566" d="M63 1536q0 -86 1.5 -213t3.5 -295t4 -318.5t4 -287.5q2 -135 3 -279.5t1 -298.5h180q106 0 246 -2q279 -4 479 -6q100 -2 229 -3t289 -1q0 174 -6 512q-2 172 -4 323.5t-4 289t-3 279.5t-1 292q-186 0 -361.5 1t-349.5 3t-349.5 3t-361.5 1zM139 1475l1286 2l15 -27 l2 -1556l-1274 2l-18 16zM186 1432q2 -373 4.5 -748t2.5 -733l1183 -23l19 11q0 82 -1 195.5t-3 261t-3.5 271.5t-3.5 228t-2 235v293q-35 0 -156.5 1t-336.5 3.5t-389.5 3.5t-313.5 1zM254 25v1345h96q63 0 156 -2q180 0 322.5 -1t281.5 -1q4 -6 17.5 -24.5t35.5 -51.5 q47 -68 68 -106h-787l-16 -21l6 -30v-31q0 -18 -2 -56t-2 -57q0 -39 6 -66.5t23 -52.5l602 -4q-35 -45 -72 -88t-71 -86l-463 4l-13 -22l-2 -668q-25 -10 -61 -10h-17q-12 0 -34.5 2t-38.5 2h-25zM496 1053v61h18q33 -2 66 -2h65h23h24h27h31h36h41h45h54h61h70h80h90h104 l12 -1116l-22 -12l-805 20l-14 617q59 8 96 12q16 2 47 2h72h49t67.5 -2t67.5 -2h51q18 31 109 129q88 94 117 160q-35 0 -113 2t-201 6t-209 7t-139 3q-16 45 -18 74q-2 16 -2 41zM520 1004q0 -29 8 -46l658 -12l24 -22q-23 -72 -123 -183q-96 -109 -112 -131l-422 2 l-18 -14l2 -553l22 -29h254l-49 152q-30 40 -60 66q-23 19 -50 20q-8 0 -17 -2q-20 -20 -32.5 -41t-2.5 -47q18 -37 37.5 -56.5t54.5 -19.5q25 14 21 55q-2 2 -17 27q-12 25 -34 14q-10 -10 -11 -16q6 -12 12.5 -24.5t14.5 -22.5q-6 -8 -21.5 0t-19.5 8q-8 16 -8 35 q0 25 16 41q12 6 27 6q23 0 76 -41q16 -23 16 -51q0 -37 -21 -60q10 0 19 2q12 0 16 -10q-10 -18 -28 -18q-27 4 -50.5 9t-33.5 1q-33 2 -58.5 21.5t-42 45t-23.5 50t-5 37.5q0 76 65 116l29 4q43 0 69.5 -17t73.5 -64q31 -35 48.5 -78t17.5 -86q0 -12 -1 -24.5t-3 -22.5 q27 0 68.5 -2.5t101.5 -6.5q119 -6 182 -6q23 0 60.5 1t58.5 5q0 59 -1 141.5t-3 186.5q-2 106 -2 195q0 90 -2.5 165.5t-2.5 172.5v215h-163q-96 0 -225.5 -2.5t-225.5 -2.5h-162q2 -4 2 -20q-2 -16 -3 -31.5t-1 -31.5zM537 1044q14 27 47 27h20q-10 -2 -28.5 -20.5 t-6.5 -40.5q12 -4 23 -4q18 0 59 28q43 31 70 31q39 2 81 4t85 2q94 0 165.5 -24.5t118.5 -88.5q-25 10 -54.5 25.5t-62 30t-68.5 25t-68 10.5q-35 0 -84 -17q-59 -29 -109.5 -51.5t-83.5 -22.5q-55 0 -79.5 29t-24.5 57zM563 412q0 10 9.5 30.5t9.5 55.5q-1 34 -13 65 q33 -6 41 -51q8 -41 23 -55q6 0 17.5 3t25.5 8t27.5 8t19.5 3q23 0 39 -22q68 -51 92.5 -130t24.5 -186q0 -25 -1 -48t-4 -46q0 45 -11 88t-29.5 80t-42 64.5t-48.5 44.5q-47 33 -114 38q-66 6 -66 50zM670 508q-5 7 -5 15q0 14 17 30q25 25 55 29q18 8 41 8 q29 0 57.5 -14.5t71.5 -57.5q8 10 21.5 24.5t29.5 35.5q29 28 64 32h35q20 0 45 -2q49 -4 61 -41v-16q-4 -1 -11 -1q-19 0 -56 5q-39 8 -64 8q-2 0 -20.5 -2t-30.5 -6q-41 -27 -52 -43t-11 -35q0 -14 6 -26l6 -7q6 2 8 9.5t2 15.5q10 -10 10 -41q0 -20 33 -20q20 0 38.5 11 t18.5 30q-2 23 -20.5 33t-38.5 14q12 32 49 32h2q27 0 51 -12q18 -18 19 -55q0 -37 -19 -55q-27 -39 -82 -39q-20 0 -28 2t-25 6q-51 31 -51 92q0 25 10 51q-16 -18 -37 -18q-8 0 -63 22.5t-74 22.5q-37 0 -63 -37zM834 995q39 25 94 25q39 0 82 -15.5t73 -35.5q-8 0 -16 -2 q-31 0 -88 18q-59 18 -92 19q-26 -1 -53 -9zM905 45q0 16 2 54t6.5 97.5t6.5 102.5t2 70q33 -10 45 -25.5t12 -36.5q0 -16 -33 -90q-29 -64 -29 -95q0 -5 1 -9zM942 47q0 102 70 217q31 47 61.5 97.5t63.5 103.5q65 104 65 194q0 80 -41 160l23 19q41 -59 41 -144 q0 -53 -13.5 -104t-35.5 -107q-23 -49 -123 -182q-98 -131 -111 -254zM977 70q0 84 94 209q47 63 74 97t31 40q-4 -12 -29 -51t-66 -105q-84 -133 -104 -190zM1006 43q4 23 100 160q98 141 98 213q0 25 -2 33q2 8 -2 23t-4 20q0 16 23 26q36 -34 36 -100q0 -32 -2 -45 t-6 -37q-14 -61 -125 -168q-106 -100 -116 -125zM1032 35q27 45 74 81t98 36q8 -12 21 -13q12 0 22 10.5t19 24.5l2 105q20 -8 28 -29q2 -20 4 -38.5t7 -35.5q-18 -98 -105 -137q-23 0 -31 14.5t-16 38.5q-5 1 -10 1q-25 0 -55 -25q-41 -31 -58 -33zM1106 731q23 0 40 -14.5 t28 -34.5l-9 -55q-23 10 -35 49q-10 43 -24 55zM1192 1012q0 21 6 37q6 10 21 10q16 0 20 6q-2 -6 -2 -25q0 -20 18 -65q18 -47 19 -70q0 -16 -10 -43q31 -90 30 -155q0 -74 -41 -160q14 55 15 131q0 66 -11.5 135.5t-29.5 124.5q-35 29 -35 74zM1200 1364q20 14 57 14 q35 0 72 -10q-2 -10 -3 -17.5t-1 -11.5q2 -23 3 -44t1 -44q0 -14 -1 -26.5t-3 -24.5q-47 25 -78 70t-47 94zM1237 1346q0 -29 14.5 -47.5t53.5 -57.5l2 102z" />
<glyph unicode="G" horiz-adv-x="1568" d="M63 1530q0 -66 1.5 -183.5t3.5 -291.5t4 -330t4 -297t3 -281.5t1 -283.5l14 -21l1411 -18q0 154 -6 504q-6 354 -10 650t-4 554h-21q-33 -2 -65 -2h-66h-22h-25h-26h-33h-37h-41h-45h-53h-60h-69h-78h-88h-103h-118h-136h-153h-183zM137 1460l19 15q51 0 140 -1t220 -3.5 t242 -2.5q113 0 205 -2t202 -2h244l23 -1566l-35 -13l-1227 23l-16 18zM182 1434l13 -1481q92 0 335 -6q123 -4 230.5 -7t202.5 -8q186 -6 409 -6l19 13l-19 1480q-119 0 -273.5 2t-318.5 5.5t-320.5 5.5t-277.5 2zM227 1180q0 102 29 194l281 -6q-98 -82 -174 -163 t-115 -173q-20 55 -21 148zM246 672q0 332 143 477q141 145 247.5 186t223.5 41q111 0 209 -39q70 -20 131.5 -61t99.5 -102q-14 -29 -47.5 -62t-74.5 -61q-147 147 -318 147q-61 0 -160 -37q-96 -37 -184 -147q-88 -109 -88 -250q0 -166 61 -303q63 -137 152 -195 q92 -57 133 -71q49 -16 96 -17q92 0 166 80q-4 41 -16 90t-30.5 108.5t-32 103.5t-21.5 73l192 -10q125 -299 191 -627q-10 2 -19 2h-10q-20 -2 -41.5 -3t-44.5 -1q-43 0 -65.5 14.5t-22.5 59.5q-55 -41 -113.5 -56.5t-130.5 -15.5h-34t-33 2t-48.5 7t-78.5 15 q-96 23 -232 160q-133 137 -167 264q-33 123 -33 228zM250 1151q0 -33 6 -59q31 57 94.5 124.5t120.5 129.5h-88q-23 -2 -61 -3q-37 0 -62 -4q2 -8 2 -34q0 -20 -6 -76q-6 -53 -6 -78zM254 332q72 -104 149.5 -189.5t169.5 -142.5q-31 -2 -62.5 -3t-64.5 -1q-53 0 -101 3 t-89 7zM272 25l240 -13q-55 43 -93 79t-64.5 66.5t-45.5 58t-33 56.5zM287 1245q0 70 59 86q18 -6 30.5 -10t29.5 -4q-8 -37 -60 -47q-47 -6 -47 -56h-6q-6 12 -6 31zM291 109q0 12 16 22q23 -4 49 -33q14 -16 22.5 -24t12.5 -13q0 -24 -27 -24h-2q-16 0 -38 8 q2 6 -3.5 15.5t-11.5 18.5t-12 17t-6 13zM487 725q0 78 27 149q29 78 109 166q82 92 249 93q50 -1 97 -13q57 -18 111.5 -64t93.5 -100l143 131q0 -37 2 -107.5t6 -177t6 -181t2 -119.5v-76q0 -31 -1 -58.5t-3 -53t-8 -54.5l-137 408q-39 10 -74 12t-100 2h-150 q0 -57 47 -204.5t47 -207.5q-45 -28 -98 -28h-4h-16q-6 0 -17.5 3t-30 10t-49.5 21q-61 31 -143 131.5t-94 213.5q-14 51 -15 104zM522 715q0 -86 25 -168q27 -86 98.5 -160t157.5 -117q27 -8 59 -8q25 0 46.5 6t33.5 25l-117 403q33 6 67 7.5t69 1.5q59 -2 118.5 -3.5 t116.5 -1.5l64 -186q29 -14 32 -63q2 -45 21 -66q0 16 -2 84t-6 188q-6 242 -7 377l-37.5 -37.5t-38 -36t-36 -26.5t-31.5 -10q-49 86 -122 135t-165 49h-18q-63 0 -114.5 -29.5t-104.5 -85.5q-57 -55 -83 -123.5t-26 -154.5zM573 682q0 12 3.5 29.5t7.5 40.5q-6 -14 6 -41 t35 -33q12 8 18 14q0 6 -12.5 19.5t-5.5 29.5q20 10 30 11q20 0 52 -37q35 -39 61 -41q29 -25 29 -64q0 -29 -9 -55q-14 12 -26 57t-37 62q-29 10 -53 -23q-25 -31 -43 -30q-16 0 -36 13t-20 48zM594 877q6 2 61 51q53 47 86 47q27 0 54 -27q43 -4 73.5 -30.5t49 -59.5 t24.5 -61.5t2 -36.5q0 -27 -14 -41q-31 0 -39 43t-27 53q-16 31 -41.5 46.5t-68.5 27.5q-4 1 -9 1q-23 0 -57 -16q-43 -18 -55 -18q-25 0 -39 21zM614 485q-4 5 -4 12q0 16 27 38q41 29 78 36q6 0 15 -7t19.5 -15t20.5 -14.5t16 -6.5q14 0 29 21l12 31q6 -16 7 -23 q0 -25 -19.5 -42t-56.5 -40q-18 -6 -47 23q-29 31 -41 30q-16 0 -31 -18zM627 793q18 23 49 22q14 0 29.5 -4t31.5 -14q6 -12 13.5 -23.5t7.5 -19.5q0 -10 -8 -17q0 -6 -7 -14h-16q6 8 6 16q0 16 -13 30.5t-34 29.5zM645 410q4 14 22.5 21t45.5 20q-10 -12 -25.5 -30.5 t-42.5 -10.5zM686 385q51 12 92 47t80 82q8 -8 8 -12t-9 -15.5t-9 -17.5q-35 -37 -73 -55.5t-89 -28.5zM711 365q39 8 76.5 34.5t93.5 69.5q-16 -37 -58.5 -58.5t-101.5 -45.5h-10zM756 348q33 23 73 23q43 0 68 -25q-4 -20 -29 -22q-25 -4 -24 -21q6 -16 41 -16 q-16 -6 -35 -6q-27 0 -47 14l35 45q-14 14 -39 14q-23 0 -43 -6zM768 1030q33 45 96 45q68 0 121 -45q57 -43 63.5 -82t9.5 -56.5t3 -33.5q0 -45 -14.5 -82t-42.5 -57q0 98 -17.5 168.5t-54.5 101.5q-35 31 -51.5 36t-42.5 5h-39h-31zM1069 725q6 59 41 105t86 77h25 q27 0 40 -5t19 -28q6 -18 -18.5 -53t-24.5 -41q0 -12 23 -16l34 37q0 -55 -65 -78q-27 4 -39 11t-12 30q0 12 16 37.5t16 40.5q0 14 -12 24q-37 -18 -62.5 -56t-39.5 -85h-27zM1176 1366q2 0 13 1t24.5 3t26.5 3t22 1q33 0 51 -18v-94zM1229 674q29 6 47 -15.5t18 -44.5 q-2 -4 -8 -22.5t-12 -24.5h-19q-2 4 -2 51q0 23 -4 36.5t-20 19.5zM1237 1358q-2 -4 -2 -8q0 -10 15 -22q22 -15 44 -21v28q0 20 -28 21q-27 0 -29 2z" />
<glyph unicode="H" horiz-adv-x="1583" d="M61 1526q0 -182 4.5 -399.5t9.5 -442.5t9 -441t4 -395l1415 -16l17 12l-21 1696l-450 -6q-141 2 -281.5 4t-282.5 2q-47 0 -103 -1t-122 -3q-63 -2 -113.5 -4t-85.5 -6zM148 985v481q104 2 208 2h211q106 2 217 2h232q119 2 221 3h197q20 -154 27 -311.5t7 -348.5 q0 -88 -2 -209t-4 -247t-4 -244.5t-2 -200.5l-43 -14l-1257 16q-2 129 -2 258q0 131 -2 262q-2 133 -2 271q1 137 -2 280zM184 1425q0 -145 6 -440q6 -297 11.5 -548t5.5 -492l1200 -6q0 377 -5 740t-5 740l-13 21q-100 0 -385 -6q-283 -2 -450 -7q-84 -2 -174 -2h-191z M256 1358q25 8 50.5 10t66.5 2h73l13 -741q82 76 176 123q47 23 110.5 51t145.5 61q166 70 250 117l10 381q35 6 49 6h39h92q0 -29 3 -172t7.5 -401t7.5 -454t3 -331q-23 -8 -38.5 -10t-47.5 -2q-49 0 -97 8l-8 778q-10 2 -20 2t-37 -16t-43 -16q-137 -55 -232.5 -95.5 t-148.5 -66.5q-104 -51 -205 -162q-12 -59 -12 -137v-17q0 -16 2 -51q2 -33 2 -59v-47q0 -37 -1 -64.5t-7 -50.5l-187 2zM512 1370h33t90 2t109.5 3t89.5 1q128 0 237 -12l10 -338q-39 -25 -258 -119q-109 -45 -182.5 -80.5t-114.5 -62.5q0 10 -2 71.5t-6 174.5 q-6 227 -6 360zM518 283q0 80 30 133t107 82q74 61 175.5 99t248.5 93q14 -49 18.5 -96t4.5 -127v-47q0 -27 -2 -64v-106q0 -49 1 -80t3 -43l-8 -127l-559 2v37q0 12 -3.5 39.5t-7.5 73t-6 78t-2 53.5zM537 1020q0 -70 1 -121t9 -104q35 20 98.5 52t157.5 73 q96 41 158.5 71.5t95.5 48.5l2 297q-51 8 -84 13q-16 2 -42 3t-63 1q-55 0 -165 -6q-55 -2 -96 -3.5t-68 -1.5q-2 -80 -3 -160.5t-1 -162.5zM539 262q0 -14 2 -44t6 -77q4 -45 7 -74.5t3 -46.5l498 -6l22 15q0 53 -2 132t-6 183q-6 209 -6 309q-104 -37 -169 -60.5 t-87.5 -33.5t-46.5 -23.5t-53 -29.5q-98 -29 -133 -90.5t-35 -153.5zM555 969q0 45 8 80l25 -27q-12 51 -18.5 79.5t-6.5 65.5q0 27 6 56q4 14 14.5 32.5t28 34t45 26.5t64.5 11q4 0 22.5 -1t30.5 -7q33 -4 43 -43q8 -41 19 -49q8 2 55 55t76 53q19 0 39 -10q8 -4 15 -9 t17 -9v-11q-12 -6 -22 -6q-14 0 -34.5 12.5t-31.5 12.5q-14 0 -24.5 -10.5t-36.5 -65.5q-27 -57 -68 -70q-47 5 -71 19q-18 11 -17 43q0 11 2 24q-4 23 -26 29q-76 -8 -119 -80q-4 -6 -6 -20v-31q0 -37 6 -63q4 -14 13 -39t26 -62q-8 -10 -13.5 -5t-11.5 36l-8 6 q-18 -43 -18 -78q0 -37 16 -80q-25 16 -32 40t-7 61zM559 227q0 33 27.5 59t60.5 38q8 2 15.5 3t17.5 1q41 0 71.5 -28t51.5 -71q0 -12 3 -37.5t3 -50.5q0 -82 -49 -108q4 29 10 55.5t12 54.5q-6 55 -44 93q-36 36 -75 36h-4q-16 0 -28 -4q-18 -16 -29.5 -30.5t-11.5 -30.5 t14 -26.5t14 -20.5q-16 -10 -27 3t-26 38q-6 14 -6 26zM561 53q12 45 64 45q14 0 24 -6q0 -23 19.5 -35t40.5 -12q12 0 18 6q-16 -18 -37 -18h-16t-25 2q0 2 -9 20.5t-15 22.5q-8 -6 -32 -8t-32 -17zM608 1087q25 66 94 66q4 1 8 1q31 0 66 -40q39 -45 64 -45q16 0 30 8 q20 20 50 97q27 73 68 73h1q6 -2 17 -2q10 0 20 -6v-14q-6 2 -18 2q-53 0 -70 -60q0 -35 -13.5 -63.5t-35 -50t-47 -32.5t-49.5 -11q-45 0 -66 20q-6 23 -24.5 40t-40.5 17h-54zM629 389q-2 4 -2 7q0 4 4 6q6 4 16 4q6 39 36 57t71 18q45 0 76.5 -22.5t31.5 -65.5 q12 -37 12 -71q0 -84 -47 -148q14 43 15 84q-6 74 -24 106q-16 29 -56 29h-10q-14 -2 -26.5 -3t-27.5 -3q-10 -12 -20 -12q-20 0 -49 14zM629 893q-1 6 -1 12q0 19 9 37q12 24 35 25q6 0 22.5 -2t36 -4.5t38.5 -4.5t32 -2q31 0 54.5 9.5t43.5 31.5q35 23 49 60 q4 18 10.5 36.5t12.5 34.5q10 -10 10 -26q0 -29 -20.5 -64t-69.5 -65q-23 -10 -44.5 -22.5t-43.5 -24.5q-8 0 -17 -2q-4 0 -15 1t-25.5 3t-30 3t-27.5 1q-27 0 -40 -7.5t-19 -29.5zM659 190v41q27 4 51.5 -16t24.5 -47l-8 -59q-4 18 -25.5 43.5t-42.5 37.5zM821 37 q80 115 80 272q0 63 -15.5 121.5t-47.5 106.5l8 22q76 -96 76 -237q0 -88 -29 -162t-72 -123zM858 31q16 35 29.5 63.5t23.5 52.5q27 55 29 70q2 10 3 27.5t1 46.5q0 4 -1 20.5t-3 49t-3 55t-1 35.5q0 59 14.5 100t53.5 70h18q12 0 16 -7q-6 -4 -23.5 -15t-21.5 -26l49 -65 q-78 -53 -92 -235.5t-92 -241.5zM897 35q39 55 69.5 95t71.5 75q10 27 11 47q0 10 -11 57q-8 39 -8 62q0 18 4 30h-10q-16 -113 -45 -208t-82 -158zM938 41l27 27q6 2 14 2q16 0 28.5 -13.5t22.5 -23.5l23 22q4 6 10 23.5t6 30.5q0 20 -16 30l-29 -18l-18 4q-29 0 -45.5 -41 t-22.5 -43z" />
<glyph unicode="I" horiz-adv-x="1550" d="M63 -135l19 -31l1391 -2l14 10q0 109 -1 240t-3 287l-6 620q-2 156 -3 286t-1 234l-11 19h-1399v-1663zM123 1450l49 18h1227l12 -49v-1515l-1266 6q0 166 -6 467t-11 559t-5 514zM164 1419q0 -88 1 -202.5t3 -260.5q4 -145 6 -275t4 -247t3 -239.5t1 -257.5h1198 q0 131 -6 518q-2 195 -4 331t-4 213.5t-2 182.5v237l-1184 15zM223 66q0 23 1 130t3 306q6 393 6 653q72 94 164 153.5t199 86.5q0 -137 6 -420q6 -285 11 -520.5t5 -440.5q-45 -12 -91 -15t-101 -3h-41t-57.5 2t-55.5 2h-32zM223 1327q0 23 10 47l220 -6l-213 -94 q-16 23 -17 53zM244 1335q2 -10 3 -18t5 -19l135 60h-113q-31 0 -30 -23zM246 1118l6 -1095h131q63 0 115.5 2t97.5 8q0 150 -6 405q-2 129 -4 245t-4 220.5t-3 218t-1 238.5q-94 -23 -179 -86.5t-153 -155.5zM264 303q0 94 26.5 161.5t90.5 94.5q-49 -43 -49 -96 q0 -16 2 -21q33 -31 54.5 -65.5t21.5 -73.5q0 -16 -11 -47q-33 -37 -54 -79t-28 -89q20 -25 48 -25q25 0 51 21q6 18 12 33.5t0 23.5h6q4 -12 4 -22q0 -43 -25.5 -62.5t-45.5 -19.5q-31 0 -53.5 19.5t-32.5 52.5q-8 72 -12.5 113.5t-4.5 80.5zM274 913q4 10 17.5 36t42.5 26 q27 -4 50.5 -22.5t44 -46t34.5 -63.5t24 -73q-39 55 -69.5 104.5t-65.5 57.5q-10 -16 -10 -29q0 -10 18 -47q20 -35 21 -53q0 -14 -6 -29q-25 -29 -50.5 -59.5t-25.5 -67.5q-14 129 -25 266zM315 1071q10 78 91 131q84 59 104 96h18q-30 -28 -30 -61q0 -25 26.5 -90.5 t26.5 -97.5q0 -27 -16 -64q-10 -41 -24.5 -71.5t-35.5 -43.5q2 10 4 34t2 44q0 57 -20 84q-16 16 -37 17q-12 0 -35.5 -6.5t-32.5 -6.5q-29 0 -41 35zM393 569q0 57 11.5 106.5t29.5 108.5q12 -10 12 -39q0 -14 -6 -47.5t-6 -42.5q-8 -39 -8 -77q0 -131 61 -236 q-43 51 -68.5 107.5t-25.5 119.5zM459 473q0 20 4 36.5t12 47.5q2 -4 5 -21.5t11.5 -46t14.5 -50t14 -31.5q0 6 1 16t3 25v47q0 100 -6 159q12 -29 28.5 -72.5t16.5 -86.5q0 -61 -35 -121q-39 20 -54 44.5t-15 53.5zM467 180q0 62 35 109q18 25 27.5 37t31.5 20 q-31 -33 -45 -79t-14 -99q0 -61 16 -121q-6 -8 -10 -8q-10 0 -14.5 10t-12.5 39q-8 31 -11 47.5t-3 44.5zM483 666l62 116l4 -28q0 -18 -8.5 -33.5t-18.5 -27t-19 -18.5t-9 -9h-11zM537 190q0 31 24 66v33q10 -31 14.5 -62.5t4.5 -68.5q-2 -27 -2 -54v-47q0 25 -20.5 68 t-20.5 65zM662 1360h217l-7 -1352q-27 -10 -55 -10q-8 0 -43 4t-55 4q-23 0 -35 -4q0 117 -6 393q-6 279 -11 517.5t-5 447.5zM940 844v391l287 12l84 148q0 -338 4 -692.5t4 -702.5l-371 2q-2 102 -2 203q0 100 -2 204.5t-2 211.5q0 109 -2 223zM952 1300q29 57 105 72 q39 8 76.5 13.5t72.5 9.5q18 -18 19 -56q0 -27 -8 -45zM967 27q35 -4 91 -10.5t107 -6.5q70 0 131 17l-4 1296q-10 -66 -48 -86t-103 -20q-16 0 -48 2t-46 2q-25 0 -43.5 -2t-36.5 -9v-1183zM973 907v5q0 26 18 34q29 -8 40 -41t11 -69v-23q0 -49 -16 -95t-45 -75 q-6 18 -6 43q0 18 12 72q14 49 14 78q0 43 -28 71zM981 109q0 27 8 41q14 14 64 26q51 12 63 53h19q6 -18 6 -39q0 -61 -22.5 -86.5t-39.5 -25.5q-14 0 -34.5 10t-28.5 10q-10 0 -15 -4q2 -25 27 -42q18 -13 45 -13q9 0 19 2l10 16l8 -10q-29 -16 -55 -16q-20 0 -47 10 q-27 27 -27 68zM981 457q125 190 172 276q47 90 47 211q0 16 -1 32.5t-3 33.5q-8 18 -45 30q-35 16 -41 35q-1 6 -1 11q-1 34 21 59q24 29 62 29q16 10 29 10q18 0 30.5 -9.5t20.5 -20.5t12 -22.5t4 -17.5q0 -18 -6 -29.5t-37 -46.5q6 -43 7 -57t1 -31q0 -141 -76.5 -264 t-195.5 -229zM987 1100q1 47 21 74q20 -31 40.5 -62t43.5 -61q49 -78 49 -138q0 -23 -6 -47v-16q0 -53 -20.5 -99t-53.5 -73q12 76 12 139q0 78 -19.5 141.5t-64.5 116.5q0 14 -2 25zM989 358q14 25 49 25q14 0 23 -8q-8 -8 -37 -8q-27 -1 -35 -9zM989 418q43 49 107 49 q32 0 61 -16q14 -31 68 -43q55 -10 57 -43q6 -31 6 -37q0 -29 -20 -49q-18 -14 -37 -26.5t-35 -27.5q-6 25 -61 41q-53 16 -54 35q0 18 13 41q8 0 17 7t16.5 15.5t13.5 15.5t10 7q-6 29 -35 39q-6 0 -47 -2t-80 -6zM989 549l37 45l8 -4l-43 -47zM1008 614q-3 3 -3 6 q0 13 56 23zM1022 1315l143 -8q35 0 35 26q0 4 -3 17.5t-3 17.5q-49 -4 -99 -13t-73 -40zM1130 528q0 10 15.5 33t15.5 37q0 2 -1 5t-3 11q20 6 46 16.5t44 10.5q33 0 39 -39q-25 -43 -49.5 -71.5t-60.5 -28.5l-41 8q-4 12 -5 18zM1186 74q20 10 44.5 24.5t26.5 42.5v76 q16 -14 22.5 -35.5t6.5 -50.5v-20q-18 -33 -24.5 -42.5t-24.5 -21.5q-39 0 -51 27z" />
<glyph unicode="J" d="M63 -106l11 -62h16h123h20h23h27h28h35h39h45h53h60h69h78h90h105h116h136h153h172l35 18q0 143 -6 498q-6 356 -11 654t-5 534h-1407zM131 1470q35 0 166 1.5t362 3.5q463 6 762 6v-1577h-16q-29 0 -57.5 -1t-59.5 -1h-18h-23h-24h-29h-33h-37h-43h-49h-57h-64h-73h-82 h-92h-109h-123h-137h-160zM170 -39q49 0 142.5 -1t234.5 -3q141 -4 251.5 -5t194.5 -3q86 -2 177.5 -3t193.5 -1l25 16q0 190 -1.5 370.5t-3.5 360.5t-3 363.5t-1 378.5l-1210 4v-1477zM219 37q0 178 1 346t3 331t3 327.5t1 336.5q47 0 346 -6q150 -2 272 -3t220 -1 q4 -47 7 -96t3 -101v-28q0 -35 -3 -110t-7 -191.5t-6 -193.5t-2 -118q-25 -102 -92 -178q-61 -74 -125 -84q-59 -6 -70 -6q-45 0 -82 15.5t-78 41.5l-172 -231l82 -76l-287 6zM254 53l14 -18h199l-59 53q16 25 41.5 58.5t58.5 74.5q33 43 58.5 77t45.5 56q12 -25 34 -37 t59 -24q35 -10 55 -10q45 0 87 19.5t89 51.5q70 102 95.5 223t25.5 281q0 27 -3 84t-7.5 147.5t-6.5 150.5t-2 95l-770 15zM272 293q10 51 16.5 101.5t6.5 103.5q41 -35 41 -88q0 -8 -1 -16.5t-5 -18.5q-23 -29 -23 -43q0 -12 8 -21q14 -10 23 -10q12 0 47 29q33 27 47 30 l103 -6q-10 2 -21 2q-45 0 -102 -73q-59 -72 -78 -72q-14 0 -30.5 20.5t-31.5 61.5zM279 973q0 31 17 48t60 21q125 0 222 -135q35 -57 68.5 -114.5t68.5 -116.5q-41 135 -119 255t-190 195q-4 0 -20.5 -1t-33.5 -1q-31 0 -47 11.5t-10 44.5v110q6 -2 22 -2q10 0 24.5 1 t35.5 1q31 0 48 -9t17 -40q-2 -4 -2 -22q0 -63 90 -164q90 -92 107 -133q86 -143 138 -289t77 -299q-20 31 -33.5 85t-34.5 140l-59 123l-12 -20q-25 35 -56.5 79.5t-72.5 102.5q-77 114 -185 114h-2q-12 -10 -12 -30q0 -10 6 -35t6 -37l-110 -72q12 20 12 52q0 18 -10 69 q-4 25 -7 41.5t-3 26.5zM287 98v39q14 -8 35 -8q35 0 84 73.5t88 73.5q4 0 10 -1t16 -3q-63 -14 -86 -59q-23 -43 -59 -145h-80q-8 8 -8 30zM301 612q0 82 47 142q49 37 96 37q25 -1 48 -13q51 -43 84.5 -74.5t54.5 -52.5q39 -39 51 -112q-10 8 -35.5 29.5t-66.5 58.5 q-77 75 -133 75h-1q-27 0 -63 -16q-37 -35 -37 -78q6 -53 33 -84.5t47 -29.5q2 0 5 1t11 3q23 16 23 47q0 16 -6 28l-21.5 21.5t-29.5 5.5l-19 -27v35q20 4 29 4q43 0 56 -23.5t13 -45.5q0 -59 -45 -72q-51 0 -82.5 28.5t-56.5 80.5q-2 8 -2 32zM467 410q25 10 45 77 q25 72 59 72q18 0 41 -12q80 -111 101 -228l-8 -8q-12 23 -24.5 47.5t-25.5 49.5q-18 33 -45 49q-18 0 -55 -31q-35 -31 -55 -31q-16 0 -33 15zM528 1274q1 6 7 16q16 -29 47 -28q2 0 22.5 2t30.5 2q18 0 29.5 -9.5t17.5 -33.5q0 -27 -20.5 -66t-20.5 -61q0 -10 3 -21.5 t17.5 -34t67.5 -110.5q55 -90 55 -166q-6 10 -30.5 51t-65.5 115t-78 127t-65 88q0 10 15 35.5t9 42.5q-8 6 -24.5 21.5t-16.5 29.5zM541 100q0 27 17 53.5t44 63.5q39 -10 82 -16t82 -6q72 0 133.5 22.5t97.5 67.5q37 37 61.5 75.5t40 87t25 105.5t17.5 129v686l170 -2 q0 -41 3 -114.5t11 -184.5t12 -185.5t4 -119.5q0 -260 -84 -447q-84 -182 -307 -280q-53 -14 -93 -20.5t-91 -6.5q-63 0 -122.5 18.5t-98.5 53.5l-3 12t-1 8zM694 475q0 33 10.5 67.5t26.5 71.5q2 -2 2 -16l-37 -141q-2 2 -2 18zM717 436q0 13 8 21q12 -8 14 -39t6 -39 q-8 12 -18 28.5t-10 28.5zM737 1090q0 55 37 98q0 6 -4 18.5t-10 26.5t-10.5 26.5t-4.5 18.5q0 20 29 31q2 -27 60 -56q50 -26 50 -64q0 -5 -1 -9q-25 -41 -52.5 -87t-27.5 -85q-2 -14 3 -28.5t13 -35t16.5 -49.5t12.5 -72l-41 43q-4 8 -37 92q-33 80 -33 132zM750 549v24h8 v-24h-8zM758 539q2 0 16 -9v-18zM764 344v33q0 29 4 46t16 40q2 -6 2 -27q0 -10 -3 -26.5t-7 -39t-7 -37t-3 -22.5q-2 16 -2 33zM780 694q4 37 23.5 63.5t42 44t42 25t21.5 2.5q14 0 37 -7t31 -7q27 0 35 39l8 37q12 -18 12 -51q0 -43 -20 -76q-25 -31 -74 -31 q-12 0 -35.5 2t-34.5 2q-27 0 -49 -9t-39 -34zM799 379l16 -19v-41zM815 686q41 -61 60.5 -150.5t19.5 -181.5q-41 162 -80 332zM868 1317q16 14 39 14q31 0 58.5 -24.5t46.5 -59.5q10 -41 15 -70.5t5 -64.5t-9 -74t-26 -63q-29 4 -45 -12.5t-22 -47.5v-28q0 -14 6 -21 l-6 -10q-25 29 -36 70t-11 84v7q0 37 41 68q47 37 47 76q0 47 -16.5 90t-53.5 58h-20q-11 0 -13 8zM877 711h4q15 0 19 -13q5 -16 1 -36v-29q-12 10 -15 29.5t-9 48.5zM883 573q6 18 25.5 29.5t43.5 11.5q47 0 60 -30q8 -2 8 -11v-14q-18 -29 -49 -29q-12 0 -27 9 q-8 14 -24.5 20t-36.5 14zM930 516q20 -29 20 -70q0 -23 -6 -43zM950 694h3q7 0 9 -8q1 -10 1 -18v-17zM979 463v14h6v-14h-6zM1073 4v23q86 66 151.5 141.5t102.5 157.5v-314v-8h-133v8q6 2 25 2h18q12 0 27 -2q43 0 55 23v31q0 53 2 100t6 92l-16 14q-31 -68 -84 -122 t-140 -132q2 -6 19 -6q-2 -6 -11.5 -7t-21.5 -1zM1176 68q4 18 19 26t36 19l1 -7q1 -8 2 -17t3 -17.5t6 -10.5q27 10 41 39q10 20 10 44q0 10 -2 20v-19v-36q0 -33 -10 -52.5t-39 -21.5q-4 -1 -8 -1q-13 0 -27 18q-16 22 -32 16z" />
<glyph unicode="K" horiz-adv-x="1542" d="M63 1507q0 -199 1.5 -408.5t3.5 -421.5t3 -420t1 -398l16 -19l1380 -4l11 17q-2 135 -2 270t-2 272v283q0 145 -2 299v543l-1397 10zM139 -90l4 1554l1270 2v-508q2 -129 2 -264t2 -282q2 -145 2 -267v-221l-45 -12zM176 1423l4 -1468q299 0 600 2t598 2v1458zM229 43 q2 106 2 211v215q2 111 2 223v236q2 123 3 225v195q35 14 55 15t39 1q37 0 84 -6l16 -604l16 -17l609 623l231 2q-98 -104 -192.5 -204.5t-192.5 -205.5v-24q127 -113 209 -260q39 -72 69.5 -143.5t54 -150.5t41 -165t34.5 -184q-16 0 -52 -5.5t-55 -5.5q-25 0 -43 6 q-16 10 -47 117t-68 215q-37 111 -106.5 229.5t-179.5 211.5l-25 -9l-305 -327l-8 -439l-166 -10zM496 31l14 418l240 253q137 -131 212.5 -298.5t106.5 -376.5l-22 -15h-539zM496 881v487h456q-117 -141 -228.5 -259t-227.5 -228zM516 1337l6 -407q51 51 103.5 104 t110 110.5t100.5 108t73 90.5l-90 -2q31 0 31 -41q0 -20 -14 -36q-16 -18 -33 -19q-14 0 -21 19q16 16 27 12v41q-35 -10 -59 -88q-20 -76 -82 -76q-27 2 -37 25.5t-25 58.5q-18 0 -25.5 -13.5t-10.5 -31.5t-3 -37q0 -16 -4 -25q0 -23 2 -45t2 -45q0 -43 -14 -57 q-10 47 -18.5 88t-8.5 82q0 27 5.5 58.5t15.5 56.5q29 41 48 60.5t56 10.5zM522 57l10 -18l506 -2v20q0 39 -18 105q-10 33 -15.5 54.5t-7.5 31.5q-109 246 -145 305q-32 58 -102 111l-226 -246zM543 238q0 20 1 39.5t1 39.5q0 57 30.5 111.5t81.5 110.5q39 10 70 24 q10 4 10 15v8q0 6 -2 14q0 18 23 14l12 -51q23 -27 23 -57q0 -25 -15 -39q-27 -8 -54.5 -16.5t-57.5 -18.5q-59 -16 -69.5 -81.5t-12.5 -98.5t-2 -80q0 -12 1 -36.5t7 -78.5q-25 20 -36 57.5t-11 123.5zM594 1036v17q0 33 15.5 57.5t39.5 24.5q16 0 37 -17q2 -6 -18 -26 q-10 8 -27 8q-18 0 -26.5 -9.5t-11.5 -19.5t-3 -22q0 -11 -6 -13zM614 121q0 35 9.5 68.5t21.5 68.5q2 -12 3 -21.5t1 -13.5q0 -20 -12 -84q-12 -66 -12 -80q-10 27 -11 62zM651 395q27 -98 37 -155q12 -53 12 -119v-29q0 -18 -4 -35zM666 1339q29 0 31.5 -22.5t9.5 -54.5 q16 2 38 38q23 35 41 41zM696 317q0 20 15.5 35t48.5 35q25 8 57 8q68 0 96.5 -35.5t28.5 -66.5q0 -57 -45 -82h-82q-10 16 14.5 40.5t24.5 37.5q0 12 -16.5 27.5t-40.5 15.5q-10 0 -24.5 -4t-30 -10.5t-28 -10.5t-16.5 -4q-2 2 -2 14zM717 166q0 15 16 31l-2 -45 q-14 2 -14 14zM758 84q-3 1 -3 5q0 10 17 36q24 37 59 37q27 10 39 10q25 0 62 -37q41 -35 69 -37q-17 -30 -47 -30h-2q-6 0 -19 3t-28.5 7t-30 6t-24.5 0q6 16 -2 30.5t-23 14.5q-23 0 -41 -13.5t-26 -31.5zM768 211q0 20 6 43t14 43q6 -16 7 -35q0 -23 -4.5 -44t-14.5 -48 q-8 18 -8 41zM819 428l41 59l-20 -59h-21zM989 938q68 92 153 179t183 173q-2 -240 -3 -476t-1 -460q-61 166 -143.5 312.5t-188.5 271.5zM1024 963q100 -145 166.5 -260t107.5 -234q0 4 -1 83t-3 232.5t-3 264t-1 178.5q-2 -2 -30.5 -31t-81.5 -86q-109 -110 -154 -147z M1055 946q0 20 32.5 45t40 29t17.5 4q6 0 17.5 -5t22.5 -12.5t20 -12.5t14 -5q18 0 30 29q0 4 -3 15t-8 25.5t-8 29t-3 24.5q0 37 45 49q0 -2 -16.5 -30.5t-6.5 -51.5q20 -8 25.5 -28.5t15.5 -51.5q0 -31 -15 -60.5t-46 -29.5q-20 0 -55 29t-54 29q-18 0 -37 -19l-22 -20 q-6 8 -6 18zM1145 829q0 8 9 12.5t20.5 7.5t21.5 4t14 3q37 -10 58.5 -31.5t21.5 -52.5v-10q0 -4 -2 -12q-29 -23 -28 -45q0 -12 13 -43t13 -46q0 -18 -12 -36h-6q10 20 10 38q0 20 -41 71.5t-41 74.5t14 45q-6 20 -39 20h-26z" />
<glyph unicode="L" d="M63 -150l13 -18h1421l-2 1669l-31 35h-1390q0 -68 -1 -189.5t-3 -302.5q-2 -178 -2 -329q0 -150 -2.5 -275t-2.5 -272v-318zM123 -82q0 86 1 203t3 270q2 301 6 518q2 111 2 248v311l1286 7l11 -23q0 -86 -1 -206t-3.5 -273.5t-2.5 -284.5t-2 -241.5t-2 -249.5v-314 h-1282zM166 -74l1220 -2v1501q-100 -2 -200 -2q-98 0 -198.5 -2t-207.5 -2h-221h-383zM225 6v531v833h191q0 -117 2 -276.5t4 -325.5t4 -320.5t2 -263.5q31 -4 60.5 -6t58.5 -2q20 0 60 2t103.5 6t107.5 7.5t71 3.5q78 23 148.5 58.5t123.5 86.5q35 0 86 -45q53 -43 70 -49 q-55 -80 -126 -131.5t-158 -82t-191.5 -41.5t-227.5 -11q-14 0 -55 1t-108 3q-66 2 -118 3t-91 1zM483 1368q80 10 166 13t178 3q16 0 67.5 -1t141.5 -3q92 -2 164 -3t129 -1v-125t2 -188q2 -215 3 -386t1 -343q-4 0 -75 41q-72 43 -97 43q-20 0 -26 -2q-43 -55 -95.5 -88 t-118 -51.5t-144.5 -24.5t-177 -6h-113zM510 1346l2 -1078q43 -8 86 -12t86 -4q147 0 268 48t209 155l156 -80v243q2 84 2 146v104q0 131 -3 249t-13 231h-166q-98 0 -232 -2h-395zM528 997l68 103q12 -6 13 -18.5t1 -26.5q0 -27 13 -35l84 -92q-49 10 -95.5 27.5 t-83.5 41.5zM530 723q12 6 21 6q25 0 51 -27q10 -12 18.5 -24.5t18.5 -22.5q14 45 43 154q27 88 78 129q-45 -70 -65.5 -150.5t-35.5 -199.5q-37 53 -65.5 87t-63.5 48zM539 467q41 0 41 20q0 10 -15 39q-14 33 -8 49l6 97q18 -27 37 -127q18 -94 59 -129q-16 0 -57 22 q-41 25 -63 29zM545 1266q10 27 24.5 36t34.5 9q16 0 47 -6.5t41 -6.5q23 0 37.5 9.5t20.5 19.5q10 -10 10 -31q0 -23 -15 -30q-12 -20 -55 -21q-18 0 -35.5 2t-31.5 2q-37 0 -37 -22q0 -16 16 -53l16.5 -16.5t30.5 -29.5q37 -33 56 -63q-61 35 -110.5 87t-49.5 114z M582 745v27q0 33 11 63t38 83q2 -14 -1 -30t-7 -34q-10 -29 -20.5 -55.5t-20.5 -53.5zM592 322q0 25 6 46t20 29q2 -18 3.5 -35.5t1.5 -33.5q0 -42 -23 -52q-8 18 -8 46zM641 485q8 82 86 160q-4 -6 -11 -24.5t-22 -51.5q-22 -61 -53 -84zM655 1167q8 39 103 50q94 8 94 59 q0 20 -12 51q20 0 34.5 -16.5t8.5 -38.5q-2 -31 -16.5 -54.5t-32 -39t-35 -21.5t-23.5 -4q-14 0 -42.5 15.5t-43.5 15.5q-14 0 -35 -17zM668 322q0 27 11 58.5t23 59.5h15l-41 -159q-8 18 -8 41zM694 516q27 -12 49.5 -35.5t26.5 -48.5zM698 1006q6 18 21.5 40.5t35 42 t42 34t45.5 20.5q6 0 53 -6q23 -2 40 -3t28 -1q45 0 76.5 17t47.5 62q-4 31 -17 54.5t-38 29.5q-18 -10 -34.5 -20t-18.5 -23q-6 -12 -1 -20t19 -21h7v-8q-8 -8 -17 -8q-14 0 -24.5 9t-12.5 20q0 55 47 90h35h14q50 1 72 -25q22 -25 22 -51q0 -4 -1 -8q0 -27 -5.5 -46.5 t-19.5 -51.5q-41 -72 -110 -72q-23 0 -41 6q-33 23 -59.5 33t-57.5 10q-27 0 -53 -14zM721 379l43 -35q10 104 135 168q129 69 158 100q0 23 -18.5 84.5t-18.5 87.5q0 33 18.5 50.5t63.5 17.5q-18 -6 -33.5 -21.5t-19.5 -35.5q2 -35 49 -93q47 -59 47 -98 q-12 -41 -21.5 -65.5t-18.5 -40t-20.5 -23.5t-25.5 -14q-4 0 -17.5 1t-36 3t-40 3t-27.5 1q-8 1 -16 1q-28 0 -50 -12q-28 -14 -49.5 -40.5t-36 -62.5t-22.5 -74q-14 12 -25.5 39.5t-17.5 58.5zM735 825q43 -68 43 -170q0 -29 -2 -37q-2 -6 -5 -21t-6 -30.5t-6 -30t-9 -20.5 q-8 23 -9 68q0 4 1 21.5t3 45.5q2 31 3.5 55.5t1.5 41.5zM739 1012q37 -14 56 -72q4 -25 10 -49.5t12 -48.5q-2 -4 -4 -14.5t-6 -30.5q-6 -37 -23 -49q0 14 1 48.5t1 53.5q0 49 -10 92t-37 70zM776 494q12 23 24.5 47t26.5 49q30 50 81 50q6 0 12 -1l4 16q0 25 -45 45.5 t-52 47.5q-1 8 -1 15q0 29 14 55q16 32 49 44q12 4 18 4q16 0 26.5 -15t18.5 -26l-6 -10q-4 25 -33 25t-34 -25q-12 -18 -13 -37q0 -27 54 -67q55 -41 55 -70q0 -25 -23 -57q-23 -29 -86 -49q-63 -18 -90 -41zM801 987q18 29 37.5 40t40.5 11q23 0 77 -24q57 -25 88 -25 q18 0 40 8.5t40 24.5q41 29 67 67.5t46 96.5v26q0 41 -8 62.5t-21 32.5h-26q14 12 32 12q31 0 46 -51q4 -20 9 -41t9 -41q0 -70 -25.5 -118t-76.5 -107q-29 -29 -64 -38.5t-106 -17.5h-6q-34 0 -85 43q-53 49 -75 49q-12 0 -39 -10zM811 338q0 19 8 27q21 -19 21 -49 q0 -9 -2 -19l-7 -8q-20 27 -20 49zM864 313q0 31 27.5 67t56.5 69q-4 -20 -41 -82q-16 -29 -26.5 -46.5t-14.5 -23.5q-2 4 -2 16zM922 324q35 84 141 84q-8 -20 -61.5 -39t-67.5 -45h-12zM1106 -8q31 18 63.5 38.5t63.5 42t58.5 41t45.5 33.5q2 -18 6.5 -44.5t4.5 -45.5 q0 -45 -21 -71zM1163 813q1 37 13 74q16 33 40 57q19 20 43 20q6 0 13 -1q-18 -23 -31.5 -37.5t-21 -25.5t-10.5 -21.5t-3 -24.5v-12q0 -6 4 -13q72 -63 72 -147q0 -31 -8 -57q-10 -12 -21.5 -24.5t-21.5 -27.5q-23 -23 -48 -23q-6 0 -12 1q41 35 41 94q0 35 -16 64 q-33 41 -33 104zM1165 6h154q0 10 3 27.5t3 29.5q0 23 -16 50zM1206 528q27 0 45.5 -19.5t36.5 -53.5v-35q-18 10 -39 53q-23 45 -43 55zM1249 33q-1 3 -1 7q0 10 14 18q16 10 31 10h5v-35h-49z" />
<glyph unicode="M" horiz-adv-x="1576" d="M63 1532l7 -1704q119 2 235 2q119 0 238 2h243q125 0 258 2h459l10 23q0 178 -4 388t-9 428t-9 431t-4 397l-19 41q-57 0 -159.5 -1t-250 -3t-271 -3t-228.5 -3h-496zM125 1253v217l18 15q324 0 643.5 4t626.5 4l35 -113l-2 -1476h-1307q0 98 -1 219t-3 268 q-2 150 -4 297.5t-4 294.5q-2 150 -2 270zM174 1436q0 -98 1 -216t3 -255.5t3 -273.5t3 -275.5t3 -258t1 -220.5l1213 2l-2 1501zM236 1380q39 8 55 9h43q25 -2 49 -3h51l346 -552q63 68 117 147q53 84 125 213q39 66 68.5 115t52.5 82h186l2 -1389l-186 2q0 35 -1 102.5 t-3 172.5q-4 209 -6 356v358q-61 -68 -97 -123q-18 -29 -46.5 -74.5t-67.5 -109.5q-76 -123 -127 -194q-88 129 -174 253.5t-174 253.5h-11v-989q-18 -8 -28.5 -10t-32.5 -2q-4 0 -16.5 1t-28 3t-31.5 3t-29 1q-23 0 -28 -2zM494 393v80t2 112.5t2 112.5v80l8 6 q70 -104 139.5 -204.5t140.5 -202.5q72 106 144.5 211t144.5 211v-801l-565 4q-8 94 -12 190.5t-4 200.5zM522 1386q100 12 226 13q80 -2 157.5 -4t157.5 -2q-68 -113 -135.5 -223.5t-132.5 -221.5q-68 88 -160 246q-47 78 -75 127t-38 65zM530 702l2 -682l519 -4l4 711 q-31 -51 -64 -105.5t-66.5 -106.5t-67.5 -98t-69 -81q-66 92 -129 183t-129 183zM543 516q0 45 22 82q16 -20 29 -61q8 -23 12 -36.5t6 -17.5q41 -49 85 -101t57 -99q-16 0 -62 30q-47 31 -76 31q-25 0 -45 -14q0 31 -14 88t-14 98zM547 119q0 4 1 16t3 27.5t3 32t1 28.5 q0 23 -2 29q10 -20 24.5 -23.5t28.5 -3.5q8 0 21.5 1t31.5 3q4 0 25 -4q6 -16 6 -28q0 -37 -61 -82q-63 -49 -68 -54q-14 20 -14 58zM557 1362l234 -373q57 94 114.5 188.5t114.5 188.5h-127q-47 2 -82 2h-61q-49 0 -103.5 -1t-89.5 -5zM623 1335l10 15l282 -11q6 -16 7 -32 q0 -39 -62 -109q-59 -72 -67 -92q-6 -16 -2 -33q-8 16 -9 31q0 39 52 102q27 33 42 53.5t21 30.5q-4 25 -43 25q-4 -4 -15.5 -14.5t-31.5 -28.5q-41 -37 -66 -37q-20 0 -37.5 9t-21.5 30q2 6 2 14q0 18 -13.5 30.5t-29.5 16.5h-18zM688 1212q12 4 21 5q23 0 38 -18.5 t15 -45.5v-6t-2 -12l-4 -58q-10 37 -24.5 79t-43.5 56zM705 133q0 53 14 84q23 35 56.5 50.5t74.5 15.5q70 0 117 -37q35 -49 54 -88t19 -82q0 -20 -6 -45h-20q2 6 2 32q0 33 -8.5 65t-26.5 52q-29 31 -76 31q-23 0 -41 -6l-26 -35q6 0 6 -8v-19q-23 6 -49 7q-55 0 -78 -35 v-13q-12 -4 -12 31zM776 115l25 -39v-31zM808 1070q3 13 11 28.5t18.5 30t22.5 24.5h19l-70 -102q-2 3 -2 9q0 4 1 10zM817 113q20 4 21.5 -12.5t5.5 -41.5v-26h-17zM854 389l35 -35v-35zM883 53q0 14 5 45t11 64l12 -43q4 16 10.5 30.5t10.5 30.5q8 -16 8 -45 q0 -27 -7 -55.5t-22 -46.5h-26q-2 4 -2 20zM889 446q33 -25 35 -49q8 -27 16 -104q-23 20 -32 58t-19 95zM948 461q0 34 10 71q35 41 70 50q-6 -18 -6 -37q0 -8 2 -23.5t5 -31l6 -31t3 -23.5q0 -37 -37 -61v-125q-23 43 -38 99.5t-15 111.5zM958 33v10q0 19 6 44q8 31 17 60 q8 -14 8 -28t-10 -43t-14 -43h-7z" />
<glyph unicode="N" horiz-adv-x="1583" d="M63 1524q0 -104 1.5 -233.5t3.5 -289.5q4 -158 6 -300t4 -271t3 -275.5t1 -314.5l1413 -8l25 21q0 131 -7 485q-6 356 -10 654t-4 540q-123 -2 -244 -2q-119 0 -241 -2q-121 -2 -246 -2t-256 -2h-449zM139 1149v321h1301v-227q0 -121 2 -264q2 -283 6 -487q2 -102 2 -244 v-326l-20 -22h-1280q0 86 -1.5 202.5t-3.5 270t-2 282.5q0 131 -2 242t-2 252zM180 1221q0 -115 2 -256l6 -559q2 -141 3.5 -258t1.5 -214h1216q0 102 -1 220t-3 256l-6 546q-2 137 -2 254v220h-1217v-209zM246 930v440l196 8q0 -137 76 -231t230 -219q147 -121 208 -195 l179 -258l22 12l-14 891l192 -10v-1368q-23 -2 -43 -3t-37 -1q-18 0 -39.5 2t-70.5 4q-29 182 -133 352q-104 172 -246.5 311.5t-319.5 270.5l-14 -18l-2 -920l-178 2v221q0 113 -2 227.5t-2 233.5t-2 248zM506 791q111 -68 244 -218q70 -78 106.5 -118.5t40.5 -44.5 q74 -104 116 -205t42 -205l-547 -2zM510 1309v69l563 -6q0 -51 2 -135t6 -207t7.5 -209t3.5 -139q-35 45 -91.5 98.5t-134.5 118.5q-76 66 -133 119t-96 94q-78 86 -127 197zM524 745l8 -729h50q31 0 73 -2q45 -2 76 -2h55h58q33 0 69 2q76 2 117 13q0 139 -72 258 q-35 59 -84 118.5t-112.5 119t-122 114.5t-115.5 108zM539 1350q-3 -6 -3 -15q0 -12 5 -29q8 -30 10 -40q33 -47 68.5 -89t74.5 -81t88 -86t108.5 -100.5t104.5 -96.5t74 -72l-14 613h-103q-63 0 -151 -2t-154 -2h-108zM545 129q0 61 16 104q6 -18 6 -43q0 -27 -8 -73 q-6 -53 -6 -80q-2 10 -5 33.5t-3 58.5zM549 489q0 23 5 66t5 66v32q35 -35 72 -67.5t74 -67.5q45 -47 45 -98q0 -29 -17 -66q-61 -76 -96 -153q37 41 70.5 66.5t74.5 25.5q12 0 41 -23q27 -20 33 -20q18 0 27 26q0 63 -56 93v-9h-12v9q14 6 23 6q20 -2 34.5 -18.5t23.5 -37 t14 -39t8 -22.5q0 -25 -7.5 -39t-44.5 -55q-16 0 -65 22q-47 25 -68 25q-10 0 -24.5 -5t-36.5 -24q-18 -14 -45 -71q-10 -27 -19.5 -44.5t-13.5 -25.5q-4 10 4 27.5t4 29.5q-14 10 -17 -3t-5 -29q0 59 67 174q68 113 68 182q-25 25 -49 24q-2 -2 -9.5 -10t-19.5 -24 q-25 -31 -37 -31t-20 8q-20 27 -25.5 47.5t-5.5 52.5zM555 262q6 23 35 23q25 0 41 -17v-6h-76zM569 1288q-2 6 -2 12q0 17 19 29q10 4 19.5 9.5t19.5 9.5q18 -10 25 -16.5t7 -24.5q-14 14 -30 14q-2 0 -15 -4l-14 -17q4 -25 13.5 -32.5t23.5 -7.5q6 0 32.5 8t41.5 8 q31 0 47 -31q18 -41 18 -88q0 -41 -16 -100h-13l3.5 21t1.5 16q0 98 -70 133q-78 0 -111 61zM578 313l4 35zM602 106l4 -4l35 86l-4 5zM635 41l27 57h16zM696 29l9 147q16 4 18 0t2 -29q0 -14 6 -16q-8 -33 -14 -61.5t-21 -40.5zM745 123q14 8 33 8q27 0 66 -27 q40 -26 61 -26h2q31 0 54 43l-11 76q33 -25 33 -76q0 -20 -6 -33q-35 -40 -65 -56q-24 -13 -56 -13q-8 0 -16 1q-33 6 -59.5 39t-35.5 64zM760 1286q-1 7 -1 13q1 15 7 26t17 11q6 0 12 -3v-35q16 -4 22 -4q18 0 66 19q43 20 65 20q33 0 45 -55q-25 -66 -102 -154 q-39 -41 -61.5 -66.5t-30.5 -35.5q0 31 47 96.5t47 89.5q0 27 -25 56q-23 -6 -43 -7q-43 0 -65 29zM848 979q-1 5 -1 10q-1 27 27 59q32 36 76 60q43 0 68.5 -8t34.5 -41q8 -14 8 -23q0 -20 -41 -73q-41 -51 -41 -56q0 -23 57 -30q0 -8 -18 -27q-80 0 -94 70q-1 4 -1 9 q0 23 25 52q33 33 37 43q-10 35 -39 35q-16 2 -31.5 -7.5t-28 -23.5t-21.5 -28.5t-17 -20.5z" />
<glyph unicode="O" horiz-adv-x="1556" d="M63 1511q0 -35 1.5 -67.5t1.5 -65.5v-20v-23v-28v-31v-37v-43v-47v-55v-64v-72v-84v-98v-108v-125v-144v-161v-181v-200q117 0 415 -7q297 -10 523 -12q223 -6 489 -6v1690l-1419 14l-11 -6v-19zM141 967v493l15 17l1259 -23q-2 -395 -3 -787.5t-1 -748.5l-1261 6 q-2 129 -3 254q0 125 -2 254t-2 260q0 133 -2 275zM190 -27q121 0 359 -6q240 -6 439.5 -11t383.5 -5q0 383 4 742.5t4 727.5l-1175 6zM254 166q0 12 1 32.5t1 43.5t1 43t1 32q18 -12 43 -61q23 -47 41 -68q8 -10 24.5 -29.5t41.5 -49.5q47 -51 92 -72v-17l-232 11 q-10 41 -12 64.5t-2 70.5zM256 754q0 174 50 305t177 215q57 45 124 64.5t147 19.5q82 0 170.5 -22.5t156.5 -59.5q57 -25 96.5 -75t69.5 -120q68 -176 68 -364q0 -160 -51 -307q-49 -147 -127 -238q-76 -88 -159 -118.5t-181 -30.5q-88 0 -170 20q-129 45 -215 158.5 t-133 257.5q-2 16 -6.5 48t-8.5 79t-6 89t-2 79zM256 1303q0 36 18 65l193 -10q-53 -33 -98 -78t-105 -115q2 10 2 19v14l-2 12q-2 13 -3 29t-3 33.5t-2 30.5zM274 1223l136 116q-8 2 -23.5 5.5t-42.5 3.5q-33 0 -70 -7v-118zM276 72q8 -14 21.5 -18.5t38.5 -4.5 q10 0 23.5 1t27.5 1q27 0 45 -6q-41 43 -85 94t-71 92v-159zM297 1288v19q8 -12 16 -13q8 0 18.5 9.5t18.5 17.5q4 -4 0 -10t-10 -14.5t-14.5 -14.5t-10.5 -8q-6 -4 -13 1t-5 13zM317 88l9 41h8l-8 -41h-9zM428 786q0 -207 55 -362q57 -156 148 -199q88 -39 106 -43h33 q74 0 145 47q117 86 171.5 219.5t54.5 294.5q0 131 -37 265q-53 88 -138 136t-184 48q-88 0 -164 -39q-98 -49 -144 -149.5t-46 -217.5zM485 735q0 86 19 183q18 61 59 112t96 74q45 18 105 18q53 0 102 -14t90 -41t71 -64.5t42 -84.5q8 -47 11 -92.5t3 -90.5 q0 -156 -52 -276.5t-175 -188.5q-35 -10 -51.5 -13t-42.5 -3q-53 0 -92 25q-98 86 -141.5 200.5t-43.5 255.5zM514 762q0 -162 45 -287t164 -186q31 -10 53 -10q47 0 80 20q16 10 42 29.5t60 48.5q43 72 71 167t28 193q0 74 -17.5 146.5t-52.5 126.5q-76 53 -125 71.5 t-96 18.5q-37 -1 -74 -15q-92 -35 -135 -124t-43 -199zM555 567q14 27 41 59.5t68 73.5t62.5 61.5t23.5 22.5q-2 6 -11.5 15.5l-18.5 18.5t-17.5 18.5t-8.5 15.5q0 10 11 27q6 8 18 14t26.5 11t25.5 8t18 8q-10 -14 -11 -21q0 -4 6.5 -9t13.5 -11.5t12 -14.5t3 -16 q-14 -14 -28.5 -30.5t-14.5 -33.5l33 -2q-4 -4 -11.5 -12t-4.5 -18q4 -4 26 -4q25 23 37 43t12 45q0 18 -14 38l-12 13q0 2 17 16.5t17 24.5q0 8 -6 14q23 4 35 -27q16 -33 17 -32q0 -98 -47.5 -133t-55.5 -35q-14 0 -33.5 18.5t-33.5 14.5zM563 641q2 18 25 78q25 57 24 92 q0 45 -41 76q10 10 29 10q47 0 64 -55q0 -55 -46 -119q-47 -63 -55 -82zM582 532q35 47 82 83t86 36q16 -10 36.5 -18t38.5 -8q31 0 47 22q29 45 59 94.5t30 94.5q0 25 -9 51q-8 18 -15 36.5t-15 39.5q-23 49 -62 57l-22 4q-27 0 -39 -55q-11 -49 -53 -49h-7q-2 -2 -14 -2 q-23 0 -57 26q-33 27 -52 27q-8 0 -16 -3t-18 -14q41 25 81.5 49.5t81.5 51.5q27 8 58 8q78 0 125 -53q33 -29 43 -65t10 -87q0 -33 -4 -62.5t-10 -62.5q-45 -66 -72 -103.5t-37 -47.5q-23 -23 -67 -35q-14 -8 -27 -8q-10 0 -43 22q-31 25 -47 25q-10 0 -21.5 -8.5 t-24 -17.5t-24.5 -17t-22 -11zM588 479q20 25 48 41.5t54 11.5q-4 -2 -45 -28q-34 -25 -57 -25zM629 451q35 33 85 50t101 17q82 0 135 -47q8 -10 8 -27v-28q-31 -10 -50 -23.5t-31 -38.5q0 51 -7.5 79t-38.5 46q-29 12 -61 13q-31 0 -68.5 -12.5t-72.5 -28.5zM674 416 q23 14 51 14q55 0 72 -47l10 -80q-12 -4 -38 10.5t-42 14.5q-8 0 -20 -4q2 2 8 12t14 24.5t8 20.5q-8 23 -29.5 34t-33.5 1zM866 557q37 0 66 12.5t49 29.5t28.5 37.5t4.5 35.5q0 14 -5 41.5t-5 40.5q0 14 4 26q23 -49 22 -100q0 -63 -31 -100q-29 -27 -47 -39.5t-43 -12.5 q-16 0 -32 11q-3 2 -9 8q-4 4 -4 7q0 1 2 3zM1075 18q78 72 134 148t91 162q8 -14 9 -27q0 -16 -19.5 -42t-23.5 -40q-2 -10 -39 -53q-35 -41 -35 -68q25 18 36 20.5t23 0.5q10 -10 11 -19q0 -6 -10.5 -25.5t-8.5 -29.5l-33 6l16.5 16.5t12.5 24.5l-29 4q-29 0 -51 -14 t-51 -49q27 -12 51 -13q27 2 47.5 4.5t36.5 2.5h12q10 0 23 -2q14 57 18 98q2 20 3 50t1 69q2 -4 3.5 -14.5t5.5 -24.5v-68v-16t-2 -35t-3 -39t-6 -29q-23 -2 -48 -3t-54 -1q-31 0 -63.5 2t-57.5 4zM1096 1356q31 8 94 8q31 -2 61 -2h62l12 -12l-8 -224q-18 27 -43 59 t-52.5 63.5t-59.5 60t-66 47.5zM1171 1337l127 -129l-8 119h-18q-14 0 -48 6q-25 5 -42 5q-6 0 -11 -1zM1231 1296v13q29 -10 35 -6q0 -6 -11 -7h-24z" />
<glyph unicode="P" horiz-adv-x="1546" d="M63 1522l7 -1688h1413v1688l-15 14q-59 0 -161.5 -1t-250 -3t-277.5 -4t-249 -4q-117 -2 -233 -2h-234zM137 1454l35 16h1245v-1568h-1272q0 375 -4 770t-4 782zM172 1419l6 -1454l12 -33l1178 2l14 31l-14 1471q-55 0 -133 -1t-180.5 -3t-212 -3.5t-232.5 -5.5 q-121 -2 -229.5 -3t-208.5 -1zM244 23v1331q70 8 116 11t70.5 5t59 3t79.5 1q125 0 237 -17.5t207 -55t169.5 -101t126.5 -156.5q14 -43 14 -83q0 -113 -117 -232q-51 -47 -102 -93t-103 -93q-123 -82 -264 -131.5t-307 -79.5l-12 -23v-301q-8 0 -23.5 -2t-32 -4t-32 -4 t-25.5 -2q-41 0 -61 27zM424 532l22 -30q35 10 83.5 26.5t111.5 36.5q133 45 207 94q41 33 85 67t91 69q94 70 94 163q-53 113 -164 166q-109 57 -370 58q-35 -2 -70 -2h-68l-16 -9zM489 600v225q0 82 3.5 153t13.5 134h82q209 0 305 -37q96 -35 149 -106q0 -35 -13 -62.5 t-37.5 -53.5t-56.5 -50.5t-69 -50.5q-98 -59 -191 -99.5t-186 -52.5zM500 -2v270q260 66 470 183.5t347 308.5l10 -760l-27 -16q-10 0 -94 2t-239 6q-311 6 -467 6zM512 977q0 -59 2 -135q2 -74 2 -129v-95q238 88 342.5 145.5t161.5 194.5q-47 61 -125 97q-70 32 -228 32 h-10q-37 -2 -73 -2h-72v-108zM516 16h105q84 0 231 2t258 3.5t184 1.5v677q-137 -174 -326.5 -278.5t-443.5 -171.5zM530 729q0 39 10.5 78t30.5 92q-10 -61 -21 -129t-11 -104q-8 33 -9 63zM539 88q0 18 5 55t5 58q0 25 -2 30h10l-6 -196q-12 20 -12 53zM565 702v27 q0 78 41 148q0 -23 -20 -78q-18 -59 -19 -90q0 -10 1 -19.5t3 -19.5q-6 25 -6 32zM565 987q-1 6 -1 12q0 25 14 43q16 22 47 23q6 0 12 -1t14 -3q-18 -6 -35.5 -20.5t-17.5 -30.5q0 -14 8 -23l74 -100l-14 -17q-43 27 -72 55.5t-29 61.5zM584 49q14 41 49 79.5t74 61.5h18 q51 0 82 -40q8 -8 8 -23q0 -18 -27 -45q-27 -25 -26 -31q0 -10 37 -10q-8 -14 -39 -14q-25 0 -43 8q-6 12 -6 22q0 18 20.5 44t20.5 38t-19 29q-39 -8 -65 -33q-12 -10 -34 -31.5t-50 -54.5zM592 123q27 57 53.5 92t69.5 49q-10 -25 -56 -63q-43 -37 -53 -66zM625 737 q-1 5 -1 11q0 33 22 64q24 36 61 58q18 6 34.5 19.5t24.5 28.5l2 14q0 16 -10 23.5t-33 15.5l-27 -2q25 10 47 10q31 0 53.5 -13.5t26.5 -37.5q0 -61 -90 -109q-90 -43 -110 -82zM651 57l33 72q6 -6 6 -16q0 -12 -9 -25.5t-24 -30.5h-6zM657 987q55 59 154 60 q39 0 69.5 -12.5t51 -28t31 -29.5t6.5 -21q0 -29 -12.5 -58.5t-30.5 -51.5q-6 -4 -37 -25q-27 -20 -51 -20q-4 0 -8.5 1t-12.5 3q49 29 68.5 55.5t19.5 52.5q0 31 -18.5 51.5t-52.5 47.5q-25 8 -46 8q-31 0 -65.5 -11.5t-65.5 -21.5zM733 223l12 74l7 -14zM739 784l6 9 q12 -2 18.5 -13.5t16.5 -27.5q-14 -6 -21 2t-20 30zM780 217q29 23 68 23q43 0 59 -23h-127zM784 291q45 37 109 37q68 0 121 -54q10 -20 14 -32.5t4 -30.5q0 -16 -6 -29q-8 -41 -76 -51q-66 -6 -65 -49q14 -16 29.5 -22.5t33.5 -6.5q31 0 60 15q-10 -41 -66 -41h-24 q-4 0 -13.5 2t-18.5 8t-17.5 17.5t-8.5 33.5q0 18 6 35l44 44t28 58q0 8 -6 25q-20 27 -84 33q-62 6 -64 8zM817 199l23 2l45 -11zM991 1378h318q0 -29 6 -80q6 -53 6 -77q0 -14 -1 -26.5t-3 -27.5q-117 96 -192 142t-134 69zM1014 123q10 -2 27.5 -10.5t45.5 -22.5 q53 -27 84 -27q39 0 64 37q2 33 -18 50q-10 -6 -31 -7h-37h-10q-4 0 -13 -2l-18 27q6 -2 13 -2q23 0 55 27q38 32 60 32h1q17 0 31 -8l18 -53q-8 -45 -20.5 -73t-46.5 -34q-31 -10 -54 -10q-41 0 -79.5 21.5t-71.5 54.5zM1032 385q51 0 86 74q37 73 97 73h2l51 52 q0 -2 1 -15.5t3 -36t3 -39t1 -26.5q0 -29 -5 -55.5t-18 -46.5q-61 -63 -103 -97.5t-89 -34.5q8 16 45 48q39 33 39 61q0 6 -4 23q-14 26 -53 26h-3q-18 0 -29.5 -2t-23.5 -4zM1085 1348q23 -6 43.5 -15.5t44 -25t53 -38t68.5 -57.5l-8 142l-201 8v-14zM1186 1313v35h20 q39 0 62 -35l8 -45q-6 4 -29 43q-23 37 -47 37q-2 -4 -6 -9.5t-8 -11.5q4 -10 12 -10t16.5 2t12.5 -6h-41z" />
<glyph unicode="Q" horiz-adv-x="1595" d="M63 -162l1457 -6l12 21l-12 1656l-17 23l-1440 4v-1698zM139 1202v262l1305 4q8 -98 13 -190t7 -184.5t3 -185.5t1 -195q-2 -78 -2 -162q0 -82 -2 -174t-2 -205v-250v-22h-1308q0 66 -1 179.5t-3 274.5q-2 164 -4.5 309.5t-4.5 276.5t-2 262zM180 -25l13 -45l1237 4 l-13 1496l-1237 4v-1459zM248 707q0 147 43 299q51 154 192 254q145 102 303 102q150 0 274 -56.5t197 -179.5q57 -72 81 -166t24 -204q0 -49 -4 -99.5t-11.5 -97.5t-14.5 -87t-13 -66q-12 -53 -57 -125q-43 -74 -43 -103q0 -25 12 -45q35 -27 52 -55.5t36 -71.5 q-10 0 -26.5 -1t-41 -3t-43 -3t-32.5 -1q-45 0 -77 10t-52 41q-109 -51 -242 -51q-78 0 -148 18q-35 10 -76.5 34t-93.5 63q-102 76 -172 239q-67 160 -67 349v6zM256 1233q0 23 1 43t1 43q0 29 -2 35q33 8 49 12q10 2 60 2q20 0 58 -1t56 -1q-49 -43 -105.5 -98.5 t-105.5 -110.5q-12 27 -12 76zM268 6l6 275q29 -74 93.5 -149t140.5 -132zM272 1298q2 -18 4.5 -36.5t2.5 -34.5q-1 -9 -5 -25l164 152h-80l13 -35q-10 -12 -38 -14t-38 -11q-2 25 22 60q-27 0 -36 -14.5t-9 -41.5zM295 31l151 -8q-41 39 -78.5 81t-72.5 89v-162zM317 66v18 q16 4 32 -6t16 -21q-6 -8 -11 -8q-4 0 -16 9.5t-21 7.5zM438 715q0 -37 5.5 -90.5t11.5 -89.5q27 -131 110.5 -235.5t155.5 -117.5q37 -4 62.5 -7t41.5 -3q33 0 61.5 8t45.5 25l-125 211q23 0 76 6q29 4 49 6t35 2q43 0 75.5 -12t51.5 -45q39 98 61.5 195.5t22.5 195.5 q0 63 -12.5 126.5t-37.5 115.5q-37 57 -86 100t-104 61q-63 23 -123 23q-143 0 -246 -90q-72 -72 -101.5 -167t-29.5 -218zM498 735q0 72 18.5 142.5t52.5 128.5q47 57 109.5 83.5t142.5 32.5q168 -20 254 -159q35 -88 35 -199q0 -68 -12.5 -140.5t-28.5 -129.5h-377 q31 -63 61.5 -125t61.5 -123q-39 0 -81 15t-109 63q-55 88 -91 197.5t-36 213.5zM528 748q0 -76 15.5 -149t46.5 -183q31 -55 83 -98.5t113 -55.5q-12 31 -71 115q-57 84 -64 135l383 6l19 17q4 16 9 44.5t13 69.5q14 78 15 142q0 147 -82 221q-78 78 -199 78 q-117 0 -199 -78q-45 -59 -63.5 -123t-18.5 -141zM549 819q0 -4 19.5 -14t13.5 -23q-16 -8 -28 8q-7 10 -7 19q0 5 2 10zM575 928q8 39 41 65.5t68 30.5q4 -4 29 -4q18 0 24 -22.5t6 -53.5q0 -59 -69 -172q-68 -115 -68 -184v-21q0 -12 4 -24q0 -51 32 -104.5t63 -100.5 q-43 6 -74 57q-10 23 -20.5 45.5t-20.5 44.5q-8 29 -10 45.5t-2 51.5q0 76 49 204q51 129 57 158q-14 27 -53 19q-41 -25 -41 -70q0 -25 8 -39q-24 19 -24 57q0 8 1 17zM659 604q0 55 32 115.5t83 105.5q31 29 82 48.5t98 19.5q33 0 56.5 -11.5t38 -26.5t19.5 -31.5t3 -24.5 q0 -61 -72 -117q-35 -29 -55 -46.5t-26 -25.5q-2 -10 7 -23.5t25 -17.5l84 33q-6 -33 -27.5 -48t-56.5 -19q-20 4 -37.5 14t-23.5 29v6q0 47 59 78q66 37 66 71q0 14 -6 33q-41 55 -111 55q-35 0 -61 -14q-70 -29 -110 -91.5t-60 -154.5q-6 27 -7 43zM727 553 q0 59 28.5 106.5t80.5 63.5q12 0 24 -2t25 -2q31 0 39 20l-19 43q29 0 38 -15t15 -34q-12 -63 -104 -102q-92 -41 -115 -78h-12zM795 553q8 0 24.5 7t26.5 7q16 0 24 -14v-18zM795 966q-2 6 -2 11t2 10q27 8 47 -24q23 -31 41 -25q0 -20 -15.5 -30.5t-38.5 -20.5l-22 8 q16 10 16 20q0 2 -6 10.5t-12 19.5t-10 21zM815 1020q-2 7 -2 13q0 11 7 21q10 17 22 27q4 -6 16 -8t19 -8q-16 -31 -62 -45zM907 1032q1 9 11 15q18 8 29 -2.5t26 -32.5q-4 -10 -12.5 -19.5t-16.5 -9.5q-6 0 -12 6q2 8 -11.5 23.5t-13.5 19.5zM909 944v12q12 -4 33 2.5 t33 6.5q16 0 24 -9q0 -10 -20.5 -18t-28.5 -16q-25 0 -41 22zM1128 1372q20 6 56 6q23 0 78 -6t79 -6q8 -35 9 -98q-2 -25 -2 -49v-52q-68 68 -126.5 124t-93.5 81zM1196 1337l131 -112v88v16q0 35 -41 35q-16 -2 -31.5 -4t-29.5 -2q-17 0 -29 4v-25zM1251 1319q8 0 21.5 -6 t19.5 -6q4 0 15 6q0 -16 -9 -19q-12 -10 -22 0zM1300 178q0 47 41 84l7 -153q-47 23 -48 69zM1311 172q0 -12 8 -20v49q-2 -4 -3 -11.5t-5 -17.5z" />
<glyph unicode="R" horiz-adv-x="1556" d="M61 1522q4 -35 6.5 -60.5t4.5 -44t2 -51.5v-80q0 -4 -1 -44t-3 -111.5t-2 -122.5v-82q0 -98 4 -163t16 -132l-8 -793l22 -10q20 4 37 4h37h49q23 0 50.5 4t41.5 10q2 -4 -8 -14l1184 6l-18 1657l-19 35q-47 0 -190.5 -1t-388.5 -3q-244 -2 -447 -3t-369 -1zM121 1460 q47 0 135 1t217 3q260 6 482.5 9.5t437.5 3.5q0 -193 6 -490q8 -295 16 -557t8 -516l-49 -14l-1210 -13q0 49 -2 115t-6 152q-6 168 -12 312t-5 286zM170 1417q0 -72 2 -182.5t6 -261.5q8 -301 17.5 -569.5t9.5 -471.5l1184 15q0 94 -2.5 208.5t-6.5 254.5q-8 276 -15 523 t-7 494q-51 0 -138 -1t-212 -3t-229.5 -3t-192.5 -3h-416zM229 1368q29 0 84.5 1t141.5 3q172 6 254 6q123 0 210.5 -7t167.5 -30q78 -47 134.5 -103t83.5 -124q0 -135 -164 -237q-82 -51 -126 -81t-54 -38v-35q123 -174 211 -348t141 -355v-20q-59 -18 -94 -18 q-102 0 -142 100q-20 51 -45.5 115.5t-56.5 146.5q-35 59 -62.5 102t-44 70t-43 58.5t-61.5 66.5l-332 -221l12 -414l-12 -16q-23 0 -47.5 -1t-46.5 -1q-6 0 -38 2t-52 6zM432 999q0 -29 1 -70.5t3 -97.5q6 -111 6 -174l613 406q12 20 12 49q0 43 -41 59l-584 9 q-8 -47 -9 -88t-1 -93zM479 1122q66 2 132.5 4t133.5 2q145 0 256 -24l-8 -27q-119 -84 -240.5 -161.5t-250.5 -149.5zM502 412q23 12 52.5 30.5t63 39t67.5 40t65 33.5q123 -143 202.5 -279.5t116.5 -279.5l-534 -6l-27 10zM514 1090l6 -283q111 59 220.5 130t220.5 140v19 q-61 0 -121 1t-117 1h-25q-20 0 -59 -2q-70 -2 -125 -6zM520 393l15 -379h61t159.5 2t176.5 3t110 1q-90 174 -129 252q-20 39 -43.5 77t-52.5 77q-16 53 -35.5 74.5t-46.5 21.5q-39 0 -114 -61q-78 -61 -101 -68zM537 229q0 18 11 36t40 61q8 10 27.5 21t31.5 24 q-10 -29 -53 -76q-43 -49 -49 -86q-8 8 -8 20zM545 846q45 55 92 99t102 69q0 4 1 12t3 25q6 30 37 30q10 0 21 2q39 0 65 -20q-4 -33 -28.5 -50.5t-65.5 -43.5q-47 0 -80 -17q-16 -8 -52 -34.5t-95 -71.5zM545 907q-3 7 -3 15q0 20 17 51q27 41 62 57q0 2 -6.5 5t-11.5 8.5 t-8 11.5t1 16q18 20 55 21q37 0 45 -29q-4 0 -21.5 7t-25.5 7q-12 0 -20 -6q-2 -10 4 -19.5t13 -17.5t14.5 -14t7.5 -8q0 -8 -13 -17q-10 -4 -24.5 -13t-36.5 -21q-37 -20 -49 -54zM547 80q0 39 18.5 80t44.5 63q-18 -43 -36.5 -90t-18.5 -94q-8 14 -8 41zM569 1010l6 20 l5 -10zM580 360v60q8 -8 8 -37q0 -12 8 -23h-16zM606 61v17q0 70 41 121q18 27 31 37q8 4 30.5 14t63.5 26q43 0 71.5 -12t28.5 -47q2 -7 2 -13q0 -32 -40 -65q-49 -41 -50 -57q0 -20 29 -49q39 0 59.5 5t34.5 30q0 20 -3 28t-11 13l-88 -35q-4 23 8 32t45 23h35 q16 0 31.5 -5t23.5 -15v-9q0 -32 -26 -46q-30 -16 -74 -34q-31 4 -63.5 10.5t-39.5 37.5q-6 8 -6 20q0 8 6.5 20.5t14.5 24.5t14 21.5t6 15.5q0 18 -30 31q-51 0 -92.5 -30t-43.5 -75l-4 -49q0 2 -4 14zM621 285q10 -4 15 -15.5t11 -38.5q-18 -2 -22 13.5t-4 40.5zM655 94 q1 37 15 64q32 -26 32 -75q0 -26 -6 -44q-6 -11 -22 -11q-5 0 -10 1q-2 8 -5.5 26.5t-3.5 38.5zM664 303q0 6 2 22.5t5 36t5 38t2 30.5q0 31 -8 49h12q2 -12 5 -34.5t3 -51.5q0 -31 -5 -51t-21 -39zM711 385q8 16 23.5 22.5t35.5 6.5q27 0 35 -2q-14 -6 -14 -17q0 -2 6 -8 t14 -13t14 -15.5t6 -14.5q-8 -27 -51 -27q-20 0 -35 9q6 18 -4 33.5t-30 25.5zM885 164q12 14 12 35q0 8 -4 25.5t-8 33.5q37 -23 37 -57q0 -12 -6.5 -24.5t-30.5 -12.5zM975 47l18 16l4 -8l-18 -10zM1042 733l263 209q8 -51 13 -93t7 -77t3 -83t1 -109l-1 -35t-3 -107 q-2 -70 -2 -127v-102zM1077 717q6 -12 31 -59.5t68 -129.5q45 -82 76.5 -138t52.5 -87q0 35 -3.5 106.5t-7.5 182t-6 185.5t-2 116zM1120 723q14 6 34 18.5t40 25.5t38.5 25.5t31.5 18.5q0 -14 2 -46t2 -46q0 -66 -16.5 -103.5t-65.5 -52.5q0 23 -3 40.5t-11.5 34.5 t-21 36.5t-30.5 48.5zM1155 1374h143q0 -16 7.5 -49t7.5 -49q0 -20 -8 -31zM1190 1360q16 -6 49 -35q33 -31 47 -33v37q0 18 -6 31q-14 -2 -36.5 3t-29.5 5q-16 0 -24 -8zM1223 539l41 -31q0 -10 -7.5 -36t-5.5 -36q10 0 18.5 13.5t16.5 17.5q8 14 8 31q0 20 -11 35.5 t-30 15.5q-14 0 -30 -10z" />
<glyph unicode="S" horiz-adv-x="1546" d="M63 1522l7 -1672l16 -18h1378l19 14l-19 1690h-1386zM131 1468h373q131 0 247.5 1t226 2.5t214.5 1.5h213v-213q0 -119 2 -271q2 -297 6 -518q2 -109 3 -250t1 -321l-35 -17l-1224 17l-19 14q0 385 -4 775t-4 779zM172 1427q0 -375 4 -744.5t4 -741.5l1190 -9l4 1479 l-10 25q-29 0 -150.5 -1t-336.5 -3t-389.5 -3.5t-315.5 -1.5zM223 1368q47 10 86 10q25 0 78 -6q27 -2 45.5 -3t28.5 -1h18q12 0 23 2q-80 -53 -122 -135t-42 -180q0 -16 1 -29.5t3 -26.5q51 -147 158 -241q102 -88 286 -197q180 -102 267 -172q4 -20 4 -24q0 -29 -29 -58 q-27 -25 -48.5 -32t-47.5 -13h-55q-166 0 -324 70.5t-313 187.5zM238 328q0 23 1 46t1 50q117 -61 203.5 -105.5t148.5 -70.5q121 -51 270 -51q80 0 156 20q43 18 72.5 64.5t29.5 89.5q0 49 -55 96q-49 33 -283 178q-227 143 -307 219q-74 74 -74 226q0 63 39 122.5t97 98.5 q123 55 270 55q68 0 138.5 -17.5t121.5 -50.5q49 -35 78 -59.5t51 -54.5q-6 -33 -55 -72q-23 -20 -37 -30.5t-19 -14.5q-57 55 -132.5 86t-155.5 31q-66 0 -125 -21q-29 -20 -48.5 -56t-19.5 -69q0 -27 8 -43q86 -102 306 -231q111 -66 175 -104.5t85 -55.5q45 -33 90 -98 q47 -70 47 -150q0 -12 -2 -30.5t-18.5 -73.5t-94.5 -122t-188 -114q-31 -4 -65 -7t-68 -3q-113 0 -217 33q-109 33 -191 74q-41 20 -96.5 51t-126.5 72q-10 57 -10 92zM248 -6v158l344 -152q-59 -12 -139 -12q-41 2 -87.5 4t-117.5 2zM248 1346l6 -814q72 -55 146.5 -99 t150.5 -79q16 -4 51 -14t88 -27q103 -32 174 -32h4q86 0 144 49q6 20 6 41q0 25 -17 41q-63 35 -128.5 72.5t-135.5 78.5q-141 82 -242.5 171t-168.5 212q-14 49 -15 107q0 88 33 164.5t92 134.5q-18 6 -47 6q-12 0 -30.5 -2t-39 -4t-40 -4t-31.5 -2zM258 127l8 -113l260 -8 q-10 6 -41.5 19.5t-85.5 33.5q-104 43 -141 68zM274 1112q0 59 4.5 102t14.5 84q26 33 55 19q12 6 15.5 0t3.5 -19q-49 -23 -67.5 -64.5t-18.5 -100.5q0 -45 12 -134q8 -43 11 -73.5t3 -46.5q8 -27 70 -88q59 -55 59 -97q0 -23 -12 -43q-8 -18 -64 -47q-53 -25 -61 -49 q-4 8 -4 18q0 20 29 54q31 31 30 45q0 18 -20 37l-45 49q0 4 -2 40t-6 103q-6 135 -7 211zM348 506q0 41 90 63q92 25 92 47q0 23 -47 60q55 0 80 -18.5t25 -41.5q0 -27 -17.5 -46t-44.5 -31h-55q-43 0 -69.5 -5.5t-53.5 -27.5zM367 473q27 35 67 35q25 0 88 -23 q61 -20 84 -20q37 0 37 45q0 10 -1 21.5t-3 27.5h-27q0 29 35 29q27 0 53.5 -19.5t26.5 -48.5q4 -31 -17.5 -54.5t-47.5 -27.5q-31 0 -117 23q-80 22 -112 22h-3q-23 0 -38 -3t-25 -7zM428 430q18 6 37 6q25 0 108 -22q86 -23 113 -23q39 0 66 16.5t47 57.5q27 10 45 10 q35 0 60.5 -18.5t53.5 -36.5q18 -29 19 -49q0 -16 -12.5 -31.5t-42.5 -15.5q-20 0 -33 6q0 4 -4 13t4 11q16 -16 35 -16q12 0 18 14q12 6 12 19q-4 10 -6 20t-6 21q-20 20 -53 20q-14 0 -21 -2q-23 -31 -47 -63.5t-57 -32.5q-18 0 -25 2q-53 0 -153.5 47t-157.5 47z M678 1042q0 37 20 58q45 22 95 22h4q70 0 129 -30q29 -14 68.5 -38t90.5 -59l195 181q-53 51 -106.5 101t-106.5 101l242 -8v-106q0 -88 2 -250t3 -277.5t1 -187.5q-74 86 -158 143q-41 29 -98.5 64t-129 75.5t-120.5 70.5t-78 48q-53 41 -53 92zM700 1028q0 -10 5 -22 q53 -45 133 -93.5t163.5 -97.5t160.5 -100t126 -101q0 45 1 106.5t3 139.5q6 160 6 238q0 61 -3 124.5t-7 129.5l-162 6q49 -47 105 -98q57 -51 57 -111q-41 -57 -97 -102.5t-124 -81.5q-63 66 -129 101.5t-137 35.5h-21q-14 0 -24 -2q-23 -12 -39.5 -31.5t-16.5 -40.5z M748 1055q25 18 59 18q53 0 76 -41q4 -12 -8.5 -34.5t-12.5 -28.5q0 -16 21 -23q25 -6 39 27t43 26q-25 -25 -51.5 -50t-55.5 -25q-23 0 -43 14q-29 12 -29 47v14q0 10 2 21q0 18 -6.5 26.5t-33.5 8.5zM924 893q6 6 17 16.5t28 26.5q26 20 55 18q25 -6 50.5 -11t37.5 -23 q0 -37 7 -61.5t34 -41.5h18q-10 -31 -43 -31q-10 0 -22 3.5t-29 5.5q-18 8 -28 55q-6 45 -37 55zM1145 887q41 -6 76.5 -32t48.5 -60q2 -10 5 -20.5t3 -35.5q0 -33 -23 -49q-29 4 -44 11.5t-25 21.5q0 6 6 13t13 15.5t12.5 16.5t3.5 16q0 31 -23.5 62t-52.5 41zM1153 0 l162 152q2 -16 6 -41t4 -45q0 -43 -22 -72zM1155 954q0 16 5.5 29.5t19.5 36.5q20 16 34 16q23 0 38.5 -23.5t9.5 -51.5q4 -12 4 -17q0 -14 -13.5 -36.5t-15.5 -37.5q-4 14 -2 43q2 16 2 25v12q0 55 -35 56q-12 -16 -23.5 -33t-7.5 -35q2 -6 17 -6q14 0 18 -2 q-6 -12 -14 -12q-10 2 -31 10q-6 8 -6 26zM1186 1337q12 0 35 -22q20 -20 41 -12l-15 34q7 4 13 4q4 0 6 -3q6 -7 14 -27v-27q-23 -8 -48.5 12.5t-45.5 40.5zM1206 6h21q16 0 33.5 2t42.5 6l-7 95q-2 -2 -13 -12.5t-34 -30.5q-43 -41 -43 -60z" />
<glyph unicode="T" horiz-adv-x="1550" d="M63 -135l19 -31l1391 -2l14 10q0 109 -1 240t-3 287l-6 620q-2 156 -3 286t-1 234l-11 19h-1399v-1663zM123 1450l49 18h1227l12 -49v-1515l-1266 6q0 166 -6 467t-11 559t-5 514zM164 1419q0 -88 1 -202.5t3 -260.5q4 -145 6 -275t4 -247t3 -239.5t1 -257.5h1198 q0 131 -6 518q-2 195 -4 331t-4 213.5t-2 182.5v237l-1184 15zM223 51q0 16 1 102.5t3 239.5q6 309 6 516q72 74 165.5 120t197.5 67q0 -106 6 -329.5t11 -410t5 -348.5q-66 -10 -107.5 -11t-76.5 -1h-45q-25 0 -59 2q-33 2 -56 2h-34zM223 1327q0 23 10 47l220 -6l-213 -94 q-16 23 -17 53zM233 1004l7 176q131 113 295 149q162 37 395 37q6 0 46 -1t111 -3q74 -2 126.5 -3t82.5 -1q-23 -72 -54.5 -123t-80.5 -64h-31q-18 0 -37.5 1.5t-37.5 1.5h-31q-43 0 -80 -3.5t-72 -13.5v-1149q-27 -10 -55 -10q-8 0 -43 4t-55 4q-23 0 -35 -4q0 59 -2 144 t-6 198q-6 227 -14 428t-7 385q-104 0 -178 -33q-39 -16 -98.5 -45.5t-145.5 -74.5zM244 1335q2 -10 3 -18t5 -19l135 60h-113q-31 0 -30 -23zM246 879l6 -863h131h43t61 2q74 4 109 7q0 119 -6 319q-2 102 -4 193.5t-4 173.5q-2 84 -3 173t-1 187q-94 -20 -179 -70 t-153 -122zM264 236q0 76 26.5 130t90.5 74q-27 -20 -41 -42.5t-6 -51.5q33 -25 54.5 -50.5t21.5 -55.5q0 -14 -11 -39q-41 -37 -59 -70t-23 -61q20 -20 48 -21q23 0 51 17q2 4 11 20t1 25h6q4 -12 4 -19q0 -43 -26.5 -53t-44.5 -10q-31 0 -54.5 15t-31.5 40q-8 59 -12.5 90 t-4.5 62zM274 719q18 27 29 37t31 10q27 -2 50.5 -17.5t44 -38t34.5 -50t24 -54.5q-10 4 -23 20.5t-34 43.5q-37 53 -78 63q-10 -16 -10 -22t6 -16.5t13.5 -23t13.5 -23.5t6 -17q4 -10 -8.5 -21.5t-27.5 -27t-29.5 -34t-16.5 -40.5q-16 106 -25 211zM315 842q10 61 91 106 t104 74h18q-31 -23 -30 -49q0 -16 26.5 -69.5t26.5 -78.5q0 -16 -5 -28.5t-11 -22.5q-10 -31 -24.5 -55.5t-35.5 -34.5q2 8 4 26.5t2 32.5q0 47 -16 64.5t-39 17.5q-12 0 -35.5 -5t-34.5 -5q-29 0 -41 27zM393 446q0 45 11.5 85t29.5 85q14 -12 15 -28q-8 -37 -15.5 -72 t-7.5 -61q0 -104 61 -187q-43 39 -68.5 83t-25.5 95zM467 139q0 49 35 88q23 25 31 32t28 13q-59 -57 -59 -143q0 -47 16 -92q-12 -12 -20.5 -1t-18.5 34q-8 25 -10 37t-2 32zM473 385v21q0 14 2 30q4 -10 17 -53q16 -49 28 -61q0 2 4 22v43q0 37 -2 73t-4 56 q14 -31 22.5 -49t12.5 -31.5t5 -25t1 -25.5q0 -20 -7 -44t-24 -48q-35 25 -45 44t-10 48zM483 522q6 27 17.5 59.5t36.5 57.5q0 -12 2 -18q0 -31 -13.5 -52.5t-31.5 -46.5h-11zM541 158q0 25 20 43v26q10 -25 13.5 -42t3.5 -52v-24q0 -12 -3 -31q0 -27 3 -35q0 10 -6.5 25.5 t-12.5 33t-12 31.5t-6 25zM940 754v350l287 10l84 131q0 -27 1 -151.5t3 -352t3 -411t1 -330.5l-371 2q-2 92 -2 182t-2 182.5t-2 188.5t-2 199zM967 25q14 0 39.5 -2.5t62.5 -6.5q74 -6 115 -6q29 0 59.5 3t52.5 12l-4 1159q-10 -59 -48 -78t-101 -19q-18 0 -51 2.5 t-50 2.5q-2 0 -31.5 -2.5t-43.5 -8.5v-1056zM973 813q-1 4 -1 8q0 17 19 25q29 -10 40 -38t11 -63v-20q0 -43 -16 -84t-45 -66q-6 14 -6 37q0 16 12 64q14 43 14 69q0 39 -28 68zM981 98q0 20 8 35q14 10 64 23q51 12 63 49h19q6 -16 6 -35q0 -51 -21.5 -75.5t-38.5 -24.5 q-10 0 -32.5 9t-30.5 9q-4 0 -17 -4q4 -27 33 -39t58 -8l10 14l8 -8q-29 -16 -55 -16q-16 0 -47 10q-27 25 -27 61zM981 406q63 88 106 149t66 100q47 78 47 189q0 14 -1 27.5t-3 29.5q-10 16 -45 28.5t-41 31.5q-1 5 -1 11q-1 32 21 52q24 24 62 25q14 8 27 8 q20 0 34.5 -8.5t21.5 -18.5t10 -19.5t3 -13.5q0 -20 -11 -34.5t-32 -34.5q2 -8 3 -20.5t5 -28.5v-27q0 -129 -74.5 -237.5t-197.5 -208.5zM987 981q1 48 21 68q39 -53 84 -109q49 -68 49 -125q0 -20 -6 -41v-14q0 -47 -20.5 -88t-53.5 -66q12 68 12 125q0 68 -19.5 124 t-64.5 106q0 12 -2 20zM989 322q14 20 49 20q12 0 23 -6q-8 -8 -37 -8q-27 0 -35 -6zM989 375q45 41 107 41q30 -1 61 -13q16 -31 67.5 -39t61.5 -51l2 -20q0 -31 -25.5 -50.5t-66.5 -41.5q-6 20 -61 37q-53 16 -54 32q0 12 13 35q14 0 32.5 19.5t24.5 21.5q-6 29 -35 35 q-45 0 -80 -2t-47 -4zM989 489l37 41l8 -2l-43 -43zM1008 549q-1 3 -1 5q-1 8 15 12q20 5 39 9zM1130 473q0 4 5.5 12.5t11.5 19.5t10 22.5t0 21.5l11 3q12 3 25 8t28.5 8t25.5 3q33 0 39 -32q-25 -41 -49.5 -67t-60.5 -26l-41 11q-4 8 -5 16zM1186 66q20 10 44.5 22 t26.5 39v66q19 -12 25 -39q5 -21 4 -42v-14q-18 -27 -25.5 -36t-23.5 -19q-41 0 -51 23z" />
<glyph unicode="U" horiz-adv-x="1552" d="M63 1522l3 -1690h18h123h20h23h29h30h33h39h47h53h62h69h78h92h105h119h137h155h177l14 1677l-14 19q-100 2 -211 2h-232q-123 2 -260 2h-291q-154 2 -252 2h-141zM145 1124l5 336q29 0 155.5 1t356.5 3q457 6 759 6l-2 -1562l-18 -14l-1251 -11zM176 -47l21 -19l1177 -8 q0 92 1 210t2 248t3 268.5t3 270.5t2 254.5t1 223.5l-14 18q-100 2 -198 2h-197q-98 2 -201 2q-102 0 -212.5 2t-205.5 2h-174zM233 1165q47 39 97.5 81t95.5 61q-2 -43 -4 -100.5t-3 -120t-2 -127t-1 -123.5q0 -147 12 -259t43 -212q43 -88 120 -138.5t165 -50.5 q6 -2 26 -2q72 0 139.5 47t153.5 176q55 131 55 279q0 147 -48 288.5t-134 284.5q10 4 72 49q57 43 88 43q29 0 76 -96q23 -47 45 -115.5t43 -160.5q43 -178 43 -342q0 -92 -12 -162q-25 -74 -62 -143.5t-85 -129t-106.5 -104.5t-125.5 -70q-80 -22 -157 -22h-7 q-100 0 -187.5 31.5t-148.5 99.5q-57 49 -94 107.5t-57.5 127t-28.5 148.5t-8 172v35t2 90t3 102t1 70v22q0 20 -2 54q-4 68 -7 110zM236 1358q12 6 43 6q14 0 40.5 -2t38.5 -2l-110 -92l-6 8q25 6 41 28.5t24 28.5zM238 0l2 274q27 -63 81 -122.5t146 -149.5zM252 27 q12 0 29.5 -2t35 -4.5l31.5 -4.5t21 -2q29 0 53 11q-105 81 -168 190zM289 106q23 -18 37 -29t8 -34q-47 28 -45 63zM494 1358l12 10l489 -4q-35 -23 -67.5 -43.5t-65.5 -42.5q92 -135 145.5 -287.5t53.5 -306.5q0 -137 -45 -258q-31 -63 -80 -112.5t-111 -69.5 q-14 -2 -27.5 -3t-25.5 -1q-70 0 -127 35.5t-98 99.5q-16 33 -25.5 66.5t-14.5 70.5t-7 82t-2 102v115zM510 815q4 -115 12 -237q10 -125 51 -203q25 -55 77 -82t116 -27h14q47 0 90 31t93 80q41 70 58 141.5t17 153.5q0 154 -56 309.5t-148 296.5l88 65q-33 0 -134 7 q-102 6 -153 6h-19q-12 0 -30.5 -1t-38 -3t-33.5 -4zM532 694q0 18 3.5 37t7.5 39l57 45q-18 -10 -34.5 -41t-16.5 -61q0 -23 8 -37q4 -8 22.5 -29.5t47.5 -60.5q61 -78 67 -113q8 -35 12.5 -48t4.5 -32q0 -16 -2 -20q-23 29 -50.5 63.5t-60.5 75.5q-66 88 -66 182z M545 1231q0 38 18 67q33 39 90 39q55 0 78 -49q2 -8 0 -26.5t-2 -32.5q0 -29 21 -41q43 18 43 61q0 18 -9 29h17q8 -18 8 -35q0 -29 -16.5 -49t-42.5 -33q-43 0 -69 8.5t-32 42.5q1 9 1 17q0 33 -19 61q-27 0 -44.5 -17.5t-17.5 -41.5l-2 -53q-23 16 -22 53zM551 1053 q0 47 15.5 77.5t54.5 47.5q-25 -14 -33 -37t-8 -60l1 -11q1 -11 2 -24.5t2 -29t1 -23.5q25 -43 40 -81q12 -30 12 -54q0 -6 -1 -12h-59q0 14 -3.5 39.5t-11.5 60.5q-12 70 -12 107zM610 743v27q6 0 17 -6v-21h-17zM614 1102q49 -51 77 -106.5t46 -125.5h-16zM627 401 q0 8 1 18.5t3 22.5q6 -16 6 -57v-25q0 -14 4 -20q-10 14 -12 25.5t-2 35.5zM643 664q0 41 12 127q6 43 10.5 69.5t6.5 36.5h16l-43 -270q-2 8 -2 37zM668 375l14 -15l-6 -47zM678 707v22q76 -72 84 -240q4 -86 8 -131t6 -55q-14 25 -16 41t-2 51v31q0 23 -2 39t-21 59 q-16 43 -36.5 95.5t-20.5 87.5zM707 1006q8 39 29.5 71.5t54.5 42.5q16 2 28 -3t12 -15v-47q0 -25 13 -31q18 -4 41 23v45q18 0 18 -41q0 -27 -13 -61t-59 -34q-20 0 -34 9q-6 10 -15.5 37.5t-17.5 37.5zM727 754q25 59 71 110t101 80q25 4 42 -5t17 -30l5 -12 q0 -20 -27 -47q-27 -25 -27 -33q0 -12 29 -22l29 41q10 -23 -10.5 -48.5t-47.5 -35.5q-7 -2 -12 -2q-26 0 -35 38q-8 45 -39 39q-27 -23 -43 -37t-20 -18q-8 -8 -33 -18zM760 678v49l12 16q8 -18 8 -53t-8 -49q-12 8 -12 37zM780 504q0 19 6 35l7 -111l-3 10q-2 11 -4 23 t-4 24.5t-2 18.5zM786 590q4 31 30 47t67 39h14t25 2q27 0 40 -8t13 -31q8 -8 8 -21q0 -27 -59 -79q0 -10 -2 -17q14 0 49 6l35 41q-6 -27 -23.5 -48t-40.5 -25h-53q-8 10 -8 28q0 6 4 25.5t4 30.5q0 27 -19 38zM831 346q0 12 10.5 23.5t26.5 25.5q6 4 1 15.5t-7 25.5 q8 0 23.5 5t23.5 5q12 0 21 -8q-6 -29 -19.5 -51t-38.5 -27q-8 -8 -4 -16l11 -10q-6 -10 -17 -10q-8 0 -18 2q-12 8 -13 20zM1034 -2q100 88 172 166t107 166l-2 -334zM1071 4q25 4 43 4h43h53q49 0 80 8l19 248h-17q-29 -66 -94 -135q-35 -35 -66.5 -65.5t-60.5 -59.5z M1161 47q0 43 45 57q14 0 19 -6q2 -6 -3 -13t-12.5 -14.5t-13.5 -14.5t-6 -9q0 -10 14 -18q29 18 48.5 41.5t19.5 48.5q0 19 -12 35q23 -6 22 -45q0 -16 -10 -41q-33 -45 -80 -45q-16 0 -23 2q-8 10 -8 22zM1208 1341q8 20 35 21q2 0 19.5 -2t29.5 -2q14 0 19 2 q6 -53 6 -127q-2 -39 -2 -78v-74zM1227 1341l65 -157q2 14 3 23.5t1 13.5q0 6 -1 21t-3 33.5t-5 38t-5 34.5h-29q-14 -1 -26 -7z" />
<glyph unicode="V" d="M59 1530q0 -229 7 -533q4 -154 7 -305t7 -305q6 -305 6 -524l20 -31h19h131h23h24h29h33h38h41h52h59h66h77h88h101h117h131h149h168l47 18q0 225 -6 537q-4 156 -7 309.5t-7 307.5q-6 309 -6 528q-354 0 -703.5 2t-693.5 2zM143 1454l11 8h1253l14 -18l4 -1534 l-1267 -12l-11 36zM188 1409l11 -1466l1185 8l-10 1470q-4 0 -74.5 1t-206 3t-231.5 3.5t-153 1.5q-164 0 -286 -5.5t-235 -15.5zM246 8l6 633q18 -23 55 -71t90 -121q111 -147 196 -252t167 -193l-502 -6zM246 934q0 117 45 221.5t125 192.5q33 4 57.5 7t44.5 3 q12 0 30.5 -1t69.5 -9q-37 -47 -70.5 -93.5t-59 -96.5t-42 -104.5t-16.5 -115.5v-14q0 -54 26 -120q30 -75 87 -160t138 -179t181 -191q41 160 77 294t65 249q57 229 92 350q16 59 28.5 108.5t20.5 84.5q12 0 40.5 2t43.5 2q20 0 41.5 -3t34.5 -11l-129 -504l-19 -17l10 -14 l-202 -809q-14 0 -40 -6t-36 -6q-23 0 -99.5 81t-187.5 212q-111 135 -194.5 260t-147.5 268q-14 59 -14 119zM246 1235l2 113h55q-12 -39 -25.5 -69t-31.5 -44zM256 1305q0 -13 6 -19q14 14 18.5 22.5t4.5 18.5t-6 16q-23 -10 -23 -38zM268 573l13 -548l436 2zM299 117 l12 -4t13 -4q8 2 8 26q-31 18 -31 45q0 20 18 39q45 25 101 25q35 -1 72 -17q29 -6 69 -53q39 -47 55 -55q-16 10 -35.5 24.5t-42 26.5t-46 21.5t-48.5 9.5h-22q-33 0 -53 -56q-23 -53 -35 -53q-14 0 -35 25zM311 375q1 36 11 63q37 -16 61 -53q10 -18 20.5 -36.5 t20.5 -35.5q-12 -18 -25.5 -34.5t-29.5 -16.5q-14 0 -25 8q-18 23 -25.5 47.5t-7.5 57.5zM414 143l8 27q18 -18 34.5 -33.5t36 -31t45 -32t62.5 -36.5q-61 12 -108.5 36.5t-77.5 69.5zM494 993q33 104 80.5 195.5t117.5 161.5q10 0 48 1t108 3q137 6 221 6l-235 -952 q-68 68 -130.5 135t-108.5 140t-73.5 149.5t-27.5 160.5zM500 137q14 6 26 6q27 0 44.5 -15t58.5 -58zM516 975q0 -143 111 -293q94 -117 196 -233q53 223 107.5 446t107.5 446l-110 -2q65 -34 65 -94q0 -6 -1 -13t-3 -18q-12 -35 -27.5 -70.5t-50.5 -39.5q-26 24 -26 60 q0 13 4 34q6 6 16 6t22.5 -2t18.5 2q6 14 6 35q0 31 -16 57.5t-41 42.5q-45 16 -82 17q-121 0 -184 -107q-62 -106 -113 -274zM559 989q0 29 25.5 45.5t58.5 20.5q-20 -25 -36.5 -44.5t-16.5 -31.5q0 -8 13 -27.5t48 -23.5q6 6 6 26v19q0 18 6.5 29.5t24.5 11.5l23 -4 q-8 -35 -15.5 -71t-33.5 -52q-9 -2 -16 -2q-28 1 -49 23q-26 28 -36 67q-2 2 -2 14zM604 772q0 27 14 39q4 -27 10.5 -56.5t35.5 -29.5q8 8 8 25q0 8 -3 23t-3 22q-1 20 30 30q33 0 56.5 -13t46.5 -38q-6 -23 -43 -55q-37 -31 -43 -47q-12 -4 -23 -4q-23 0 -44 17t-36 40 q-6 27 -6 47zM680 1174q-1 5 -1 11q1 23 19 47q24 30 70 46q27 0 41 -4t18 -25q-12 -4 -39 -4q-23 0 -35 -6t-18 -25q4 -16 27 -32q32 22 59 22h2q37 0 47 -41q23 -51 41.5 -93t26.5 -73q-23 27 -141 60q-117 37 -117 117zM711 852v25q0 57 9 94.5t42 64.5q6 -2 26 -2 q14 0 23 -4q-39 -53 -69.5 -97t-30.5 -81zM739 651q23 -16 49.5 -63t34.5 -56q-31 23 -53.5 54.5t-30.5 64.5zM758 916q0 12 26 38q16 -4 27.5 -11t11.5 -23v-19h-61q-4 8 -4 15zM819 817q0 39 12 70q8 31 35 47t54 10q-41 -29 -56.5 -75t-15.5 -105q0 -35 2 -53.5t4 -59.5 q-18 63 -26.5 96t-8.5 70zM1038 2q18 88 37 168t35 152q18 72 44 170t60 221q35 125 62 226t47 179q0 -20 1 -132t3 -316.5t3 -370.5t1 -295zM1071 29q25 0 68 -1t63 -1q31 0 58.5 3t54.5 7l-3 338l-100 -70q-6 18 -6 39q0 25 31 98.5t31 106.5q0 37 -25 72q49 0 55.5 -80 t13.5 -95l-2 519q-68 -233 -126 -467t-113 -469zM1128 223q18 -23 25 -73q4 -27 5 -43.5t3 -24.5h-8zM1171 365q29 -86 43.5 -155t14.5 -138q-14 16 -17 63q-2 51 -18 70l-6 -123q0 14 -5 48t-5 52q0 39 16 60zM1202 528q8 -8 15.5 -29.5t9.5 -23.5q-15 -7 -21 13 q-5 15 -4 31v9zM1245 293q20 -43 23 -72q6 -29 6 -102v-62zM1312 401h9v33h-9v-33z" />
<glyph unicode="W" horiz-adv-x="1548" d="M61 -127l27 -41h1389l10 1669l-12 23h-1414v-1651zM121 -90l8 1565l1290 -15v-516q2 -131 2 -270t2 -286.5t2 -268.5v-219q-317 0 -640.5 -4.5t-647.5 -4.5zM156 -49l14 -10l1206 -7l15 1489l-1221 7v-138q0 -80 -2 -188q-2 -106 -3 -246.5t-5 -316.5q-2 -174 -3 -320.5 t-1 -269.5zM231 0l7 1163q45 39 94 71t98 52l-4 -950l10 -14q76 74 134.5 146.5t93.5 143.5l2 488q43 14 90 14q14 0 36.5 -2t53.5 -6l-2 -780l14 -15q129 147 206 294t77 313q-1 200 -101 337q31 31 66 62t70 31q74 -100 113.5 -216t39.5 -239q0 -27 -1 -51.5t-5 -51 t-12 -59.5t-22.5 -76t-38 -93t-58.5 -107.5t-73 -111.5t-79 -105.5t-92 -111.5t-112 -130l-172 2l-9 321q-27 -35 -68.5 -79.5t-99.5 -100.5q-57 -53 -94 -88t-53 -51h-109zM231 1307v34v21l31 4l10 -1q11 -1 25 -3t27.5 -3t19.5 -1q23 0 31 2q-20 -23 -47 -43.5t-82 -52.5 q-14 8 -15 43zM246 1286q18 6 49 31q35 29 39 31h-82zM467 6l102 125q10 -27 11 -59q0 -31 -11 -68v80q-18 4 -37.5 -17.5t-39.5 -50.5l18 -12zM494 506l4 854l534 -2q0 -25 -41 -49q-20 -10 -32.5 -19.5t-16.5 -13.5q137 -143 137 -350q0 -63 -16 -133q-37 -106 -72 -178 t-86 -119q0 57 1 141t3 194q6 221 6 328l-18 23l-295 2l-12 -23l-10 -571q-20 -31 -36 -46.5t-50 -37.5zM500 870h8q14 6 20.5 -8t6.5 -37q0 -25 -3 -30q-10 0 -16 16t-8 18l4 -282q6 6 28.5 26.5t26.5 40.5l11 580h346l12 -147q2 -25 2 -66v-98v-70t-2 -94v-156 q18 35 36.5 68t37.5 65q41 78 41 146q6 33 6 82q0 92 -37 183t-96 169l49 59q-10 0 -57.5 -1t-133.5 -3q-84 -2 -152.5 -3t-121.5 -1v-321q10 59 16 81.5t33 38.5q-10 -43 -20.5 -86t-20.5 -86q-2 2 -4 4.5t-4 6.5h-8v-95zM520 702q20 -20 30.5 -35.5t10.5 -33.5 q-25 -2 -30 21t-11 48zM526 1225q0 25 21.5 45.5t52.5 34.5q23 10 33 6q-25 -25 -54.5 -53.5t-48.5 -55.5q-4 12 -4 23zM549 938h8l6 -80l-6 -2zM645 1243q41 78 129 78q4 0 13.5 -1t19.5 -3q-23 -2 -51.5 -12.5t-53.5 -28.5q-10 -10 -10 -16q0 -23 21 -25q14 -8 24.5 2 t24.5 25q10 2 19.5 3t15.5 1q39 0 72.5 -14.5t72.5 -37.5q6 -10 21.5 -30.5t15.5 -38.5q0 -4 -1 -8t-3 -13l-10 -12l3 12t1 9q0 27 -16.5 47t-38 34.5t-44 20.5t-34.5 6q-10 0 -27.5 -4t-37 -9t-37 -9.5t-27.5 -4.5q-33 0 -62 29zM932 2q63 82 119.5 153.5t105.5 139t91 135 t79 139.5q0 -104 -6 -284q-2 -92 -3 -162t-1 -119zM940 838q0 20 8 30q0 8 7.5 23.5t15.5 32t14 34t6 29.5q-2 4 -2 14t-6 21l-35 57q45 -18 66.5 -36.5t25.5 -57.5q-4 -16 -30 -59q-27 -39 -27 -62q0 -18 10.5 -28.5t36.5 -20.5q0 -29 -10 -54.5t-47 -68.5h-12q0 6 7 15.5 t14 20.5t12 23.5t3 22.5q-57 14 -57 64zM985 27q43 -4 84 -6.5t80 -2.5q37 0 78 2.5t69 6.5l11 448q-35 -51 -68 -100t-68 -99l68 7q25 -6 41 -24.5t18 -43.5q-35 10 -71.5 21.5t-71.5 21.5q-4 -8 -24.5 -34.5t-57.5 -71.5q-74 -92 -88 -125zM1044 96q10 23 46 23 q33 0 38 -23q4 -25 -10 -44q-12 -16 -25 -16q-3 0 -6 1q0 41 -43 59zM1112 182q29 29 66 29q31 0 56.5 -17.5t31.5 -46.5q1 -7 1 -14q-1 -29 -21 -46q-26 -21 -64 -50q-4 12 -4 18q0 8 9 31t9 35q0 18 -8 26zM1231 317q-1 2 -1 4q0 3 4 7q7 6 21 6q31 0 37 -25zM1270 1358 l53 -2v-111q-19 27 -37 57q-16 27 -16 51v5zM1282 1333l29 -35v25q2 2 2 5t-4 6q-6 5 -13 5q-12 0 -14 -6z" />
<glyph unicode="X" horiz-adv-x="1515" d="M59 1479q0 -23 8.5 -62t8.5 -59v-21q0 -33 1 -65.5t1 -65.5v-22v-25v-29v-32v-37v-43v-51v-60v-67v-78v-90v-103v-114v-131v-150v-164l10 -14q-2 -2 -5 -7t-5 -3l4 -148h1372q0 145 -6 545q-2 397 -6 643q-2 123 -2 248v262l-1360 -4l-12 -14q-8 -16 -9 -39zM127 905v572 l14 8l1248 -2v-533q2 -131 2 -268t2 -280.5t2 -268.5v-235l-1239 -25l-19 14q0 57 -1 169t-3 280t-3 309t-3 260zM160 1438l18 -1516l1172 8l18 19l-14 1501l-1178 -6zM225 1260l314 -506v-27q-98 -84 -168 -172t-140 -207zM231 1200l19 -770q74 104 135 175t127 128 q-55 119 -127 233.5t-154 233.5zM242 1378l10 15l211 -4q45 -74 129 -228q41 -76 68.5 -127t44 -79.5t40 -62.5t56.5 -75h35q125 117 199.5 240t74.5 264q0 16 -2 31.5t-2 25.5q20 12 49 13q6 0 39 -4.5t53 -4.5q6 0 14.5 1t18.5 3q0 -223 -99.5 -412.5t-283.5 -314.5 l389 -657q-14 0 -65 -6q-25 -4 -44.5 -6t-33.5 -2q-33 0 -70 12q-47 70 -166 270q-59 100 -100 168t-64 103q-47 -10 -77 -37q-16 -12 -42 -37t-61 -61q-70 -74 -110.5 -189t-40.5 -233l-168 -2q0 213 108 407q109 197 287 318q-35 66 -88 153.5t-109.5 180t-109.5 181.5 t-90 156zM258 768q0 15 12 31q18 35 54 35q-6 -25 -7 -41q0 -18 8.5 -36t26.5 -24h109v-6q-16 0 -66 -14q-49 -12 -78 -13q-18 0 -24 2q-20 20 -27.5 35t-7.5 31zM262 606q0 14 5.5 31t11.5 27q6 -4 24 -33q23 -29 37 -29q-2 -14 -17.5 -26.5t-29.5 -12.5q-16 0 -23.5 13.5 t-7.5 29.5zM262 979q0 37 33 72q35 -6 53 -47q-8 -25 -13 -44.5t-5 -31.5q0 -25 20 -51q2 -10 37 -37q33 -27 33 -39q0 -14 -8 -23h-13q-6 29 -71.5 94.5t-65.5 106.5zM498 43q0 27 5 68t9 67q29 86 79 154.5t116 113.5q47 -70 84.5 -128t66.5 -107q29 -47 60.5 -100.5 t64.5 -112.5l-479 -21q-6 27 -6 66zM516 2h51t135.5 2t150.5 3t97 1q-61 102 -122.5 203t-120.5 203q-78 -49 -123 -131q-43 -84 -68 -281zM551 1389l477 8q2 -18 3 -37t1 -37q0 -61 -13 -122.5t-39 -116t-62.5 -99.5t-83.5 -76q-78 98 -136 201q-27 49 -63.5 118t-83.5 161 zM563 121q0 41 25 82q-8 -27 -8 -64q0 -57 22.5 -82.5t52.5 -25.5q29 0 78 53q53 53 72 53q25 0 59 -41l15 -73q-16 23 -36 30.5t-38 7.5q-29 0 -84 -24q-53 -25 -76 -25q-37 0 -59.5 37t-22.5 72zM563 1370q14 -20 42 -67.5t73 -123t84 -135t74 -104.5q104 70 140 180.5 t36 257.5l-434 4zM594 268q12 4 31 4h30q18 0 32 5.5t22 25.5q-4 -23 -29 -42t-51 -19q-4 0 -21 4q-4 4 -11 10q-4 4 -4 8q0 2 1 4zM612 145q10 25 74 64q56 38 56 83q0 6 -1 11q-10 -18 13 -55q23 -39 22 -51q0 -16 -8 -25.5t-33 -17.5q-12 6 -33 6q-20 0 -35.5 -3 t-54.5 -12zM627 1366q20 -4 51 -8t72 -8q121 -23 172 -115q-59 39 -103.5 63.5t-73.5 38.5q-52 29 -118 29zM645 303q20 39 74 43q-4 -6 -14.5 -13t-22.5 -13.5t-23.5 -11.5t-13.5 -5zM651 1331q14 -4 80 -39q72 -35 109 -39v-12q-14 -10 -24.5 -13t-41.5 -3q-25 0 -41 2 t-35 6zM723 1139q41 10 87 22t71 41l16 -16q-25 -37 -52.5 -65.5t-60.5 -43.5q-14 4 -32.5 30t-28.5 32zM803 1018q53 39 88 98.5t76 153.5q-8 -78 -46 -144.5t-104 -107.5h-14zM940 1280l6 76h8l-6 -76h-8zM997 633q123 117 191 196q67 83 106 189q8 -47 13 -74 q2 -14 2 -37v-55v-37t-2 -53v-90l6 -557q-84 125 -172 264q-45 72 -81 134t-63 120zM1024 627q49 -98 122 -213t144 -226l-12 758q-29 -92 -109 -178q-37 -35 -73.5 -70.5t-71.5 -70.5zM1075 612q0 35 16.5 62.5t45.5 36.5q57 0 57 -41q0 -27 -33 -68q-31 -43 -31 -55 q0 -25 48 -37q74 68 73 160q1 50 -22 118q20 -55 32.5 -109t12.5 -108q0 -76 -29 -155q0 -10 -5 -33t-5 -35q0 -23 12 -35q-35 53 -68.5 107.5t-68.5 107.5q-2 16 20.5 65.5t22.5 55.5q0 18 -14 33q-23 -4 -37.5 -26.5t-26.5 -43.5zM1174 543q40 78 40 180q10 -27 11 -49 q0 -33 -15.5 -68t-35.5 -63z" />
<glyph unicode="Y" horiz-adv-x="1527" d="M61 -160l1405 -8v1673l-14 23q-117 2 -233 2h-232q-117 2 -237 2h-248q-129 2 -238 2h-201zM135 -86q0 381 4 773t4 773h1243v-211q0 -121 3 -276q2 -311 6 -529q2 -111 2 -245v-299h-1239zM174 20l14 -79l1168 -4l10 1474l-1188 6zM238 969q55 -160 125.5 -305.5 t162.5 -298.5v-33q-80 -76 -146.5 -132.5t-139.5 -105.5zM250 6q16 14 57 46t111 83q137 100 209 197q-59 92 -108.5 177t-90.5 163q-78 160 -127 332t-49 356h166q35 -242 116.5 -458t217.5 -406q143 186 230 400t114 450q20 10 36.5 12t47.5 2q16 -2 32 -2h31h17 q12 0 24 2l10 -23q0 -254 -96 -493q-94 -238 -248.5 -440.5t-367.5 -407.5zM258 844l10 -692q78 49 137.5 99t94.5 109q-33 59 -68 121t-70 127q-69 130 -104 236zM266 651l6 27q14 0 26.5 -12.5t25.5 -22.5v-16q-4 -2 -21 -2q-31 0 -37 26zM281 303q4 18 12 48t29 42 q8 -4 30 -6q14 0 23.5 7t12.5 17.5t4 18.5t1 12q0 10 -4 24.5t-8 30t-9 29t-7 19.5q69 -69 69 -175q0 -36 -8 -67l-27 -24l-57 47q-25 -6 -30 -24.5t-11 -49.5q-12 2 -12 33q0 16 -8 18zM297 539q0 18 2 24q10 -29 20.5 -55.5t20.5 -54.5q12 -12 12 -35q-55 45 -55 121z M504 1350q25 4 43 6t31 4q14 2 37.5 3t58.5 1q57 0 174 -6q119 -6 162 -6q0 -98 -37 -217q-18 -59 -33.5 -111.5t-30.5 -97.5q-27 -86 -64.5 -151.5t-88.5 -143.5q-129 147 -190.5 327.5t-61.5 391.5zM528 1329q0 -98 20.5 -188t61.5 -203q35 -80 70 -149.5t72 -116.5 q104 154 159.5 316.5t73.5 348.5h-233h-29q-23 0 -64 -2q-80 0 -131 -6zM596 1171v13q4 0 19.5 -13.5t27.5 -7.5q6 4 7 16.5t1 24.5q-35 20 -55 56q-1 6 -1 11q0 20 17 33q21 17 50 25q57 0 103 -27.5t71 -72.5q31 -66 30 -135q0 -78 -37 -123q0 18 7 71q4 29 6 46.5t2 27.5 q2 25 -7.5 52.5t-27.5 51t-42 39t-46 15.5q-12 0 -25 -4q-6 -16 -6 -19q0 -6 8.5 -12t18.5 -12t18 -14.5t8 -18.5q0 -31 -19 -45t-36 -19q-29 -6 -51.5 6.5t-40.5 34.5zM610 979v22q0 25 6.5 37.5t26.5 12.5q-14 -14 -14 -41t8 -45l25 -19q8 6 16 6l2 -65q-33 2 -43.5 27.5 t-26.5 64.5zM690 -4q59 70 120.5 138.5t121.5 137.5q119 129 209 320q45 98 87 190t81 185l10 -959l-23 -16zM694 901q0 39 4.5 75t12.5 87q18 39 39.5 77t60.5 38q-20 -35 -40.5 -70t-41.5 -70q-12 -31 -16 -58.5t-4 -70.5v-39q0 -14 2 -29.5t4 -35t8 -45.5 q-16 31 -22.5 62.5t-6.5 78.5zM729 940q0 33 14 53q6 2 12 2q23 0 42 -28q10 -16 19 -25.5t13 -13.5q0 -6 5.5 -28.5t3.5 -39.5q-14 18 -32 32.5t-34 14.5q-18 0 -29 -10l-6 -4q-8 18 -8 47zM748 23l532 2l8 821q-66 -217 -205 -421t-335 -402zM752 764q0 10 2 27.5t6 34 t12.5 27.5t18.5 11l-27 -133q-12 8 -12 33zM834 33q2 12 18 27.5t29 19.5q0 -14 -13.5 -23.5t-33.5 -23.5zM854 1225q33 16 56.5 32.5t25.5 38.5q6 -16 6 -39q0 -53 -47 -94q-20 -2 -31 21q-2 10 -4 20.5t-6 20.5zM905 61q8 8 8 27q0 10 -4 31.5t-4 32.5q1 35 21 47 q27 -8 26 -35q-4 -18 -10 -36.5t-10 -39.5zM967 47q-3 6 -3 14q0 10 6 24q11 24 27 36q10 -4 11 -15q0 -8 -5.5 -20t-15.5 -25zM987 139q0 31 39 31q10 0 21 -2q-8 -12 -30 -17.5t-30 -11.5zM1012 240q0 27 20 55t47 53q8 6 21 6q20 0 34.5 -17.5t22.5 -39.5q4 -20 4 -25 q0 -31 -14 -73.5t-14 -67.5q0 -29 14 -49l51 8q-4 -23 -18.5 -33t-40.5 -16q-25 -4 -40.5 12.5t-27.5 44.5q-2 6 -2 27q0 8 2 25.5l4 35t4 34t2 26.5q0 23 -2 28q-25 0 -35 -21.5t-24 -51.5q-8 14 -8 39zM1137 430q0 14 28 37q27 20 31 41l47 123q0 -12 2 -21q0 -2 -2 -35.5 t-2 -54.5q0 -31 6 -51t23 -39q-20 -14 -26.5 -28.5t-6.5 -34.5q0 -14 12 -60q14 -43 15 -67q0 -33 -19 -58q0 57 -28.5 128t-79.5 120zM1180 168q23 -6 38 -19.5t39 -39.5l-12 -74q-23 2 -28 12t-5 31v28q0 33 -8 43.5t-24 18.5z" />
<glyph unicode="Z" horiz-adv-x="1554" d="M61 1524l15 -1692h16h123h21h24h25h30h35h39h47h51h62h72h79h93h104h121h135h154h174l12 1702l-1415 2zM137 1235v227l41 17q31 -2 62 -2h65h19h22h27h30h33h41h45h56h63h72h82h92h102h109h112h107h84h37l-15 -1567l-51 -14l-1222 -2q0 111 -1.5 235.5t-3.5 267.5l-6 572 q-2 143 -2 266zM176 -55l1213 -15l-3 1493l-1206 2zM231 403l5 986q59 -2 121.5 -4.5t115.5 -2.5q-6 -14 -74 -88q-66 -72 -75 -125l10 -30h500q-29 -45 -79 -107.5t-143 -157.5q-35 -25 -116 -26q-88 -4 -115 -60l-94 -133q6 43 55 113q23 29 43.5 57.5t42.5 57.5 q49 -16 80 -17q82 0 160 103q39 51 65.5 83.5t42.5 47.5l-18 10l-461 6q-10 16 -10 27l30 86l99 127q-25 6 -68 7t-82 1q-14 -145 -14 -240v-174q0 -131 2 -260t2 -264l98 172l-26 -4q-14 0 -25.5 8t-21.5 8v8l106 3q-33 -59 -64.5 -118t-64.5 -118zM246 104 q2 82 19.5 148.5t50 129t78.5 129.5t106 148q-55 23 -94 23h-13q-8 0 -20 -2q4 39 31.5 71.5t72.5 73.5q18 0 50 -2t42 -2q47 0 78 15.5t47 58.5q141 139 244 274q-72 12 -148.5 15.5t-171.5 3.5q-53 -2 -104 -2h-102q14 49 54 97t89 83h16q31 -2 60 -2h61h21h20h27h28h33 h37h43h47h58h63h74h84h100v-84q-55 -41 -112.5 -93t-116 -110.5t-117.5 -121t-117 -119.5q27 -12 58.5 -16.5t66.5 -4.5q41 2 80 4t76 2q-37 -115 -178 -139q-59 -4 -121 -10t-121 -10q-70 -92 -117 -160t-73 -109q-55 -86 -78 -200l18 -11h64q39 0 88 -2h147 q135 0 238.5 11.5t201.5 41.5q-84 -127 -206 -237l-752 8q-4 27 -7 51.5t-3 48.5zM270 862q0 57 16.5 118t45.5 112h33q-37 -68 -59.5 -145t-22.5 -142v-25q0 -14 2 -26q-10 31 -12.5 49t-2.5 59zM287 1229q0 14 2 33.5t5 35t8 26.5t15 11q8 0 17 -8q4 -27 -13.5 -52.5 t-33.5 -45.5zM303 866q0 47 20.5 92.5t57.5 83.5q33 27 76 37q10 -10 12 -39q4 -29 33 -28q45 61 98 61q20 0 47 -14.5t27 -44.5q0 -23 -18.5 -29t-34.5 -6h-43q2 6 11 10t20.5 7t20.5 8.5t13 15.5q-4 12 -19.5 16t-23.5 4q-35 0 -90 -61q-55 -59 -68 -59q-23 0 -47 41 q-10 6 -20 6q-18 0 -29.5 -21.5t-17.5 -46.5l-11 -108q-14 37 -14 75zM360 1337l15 2v-12zM528 242q0 47 19.5 95t52.5 97t77 97.5t93 95.5q10 2 47 2q4 0 22.5 -1t51.5 -3q35 -2 58.5 -3t37.5 -1h23q14 0 26 2q20 20 49 47.5t66 66.5q74 76 104 99v-21q-49 -57 -102 -110.5 t-113 -104.5l-262 4q-152 -145 -209 -319l21 -13q29 2 58.5 3t58.5 1h41t55 -2q33 -2 55 -2h37q98 0 173 14.5t142 55.5q47 0 86 -29l27 21q-10 117 -13 241.5t-3 262.5v323h-25q-8 -8 -34.5 -33.5t-73.5 -70.5q-92 -86 -140 -146q23 -14 38 -19t40 -5q10 0 31.5 2t34.5 2 q2 0 23.5 -2t35.5 -6q-18 -10 -39.5 -13.5t-46.5 -3.5q-14 0 -33.5 1t-46.5 3q-53 6 -70 7l-4 28q66 66 113 115t80 80q67 64 143 117l-2 -947q-51 33 -100 33q-35 0 -109 -29q-66 -26 -109 -26h-3q-4 0 -13.5 1t-19.5 3zM631 324q4 20 23 41.5t42 31.5h27q37 0 49 -6z M690 299q2 14 55 45q53 35 54 62v8q0 6 -4 16q-4 14 -37 23q-35 12 -35 26q0 12 12 31l10 14q10 -23 70 -30q56 -7 56 -49q0 -4 -1 -9q0 -39 -27.5 -66.5t-68.5 -50.5q-10 2 -15 3.5t-7 1.5q-18 0 -29.5 -6.5t-32.5 -18.5zM838 350q18 0 65 -24q45 -25 64 -25q16 0 32 12 q-18 -23 -35.5 -26.5t-64.5 -3.5zM897 530q31 33 68 33q39 0 66.5 -27.5t27.5 -68.5v-45q-6 0 -12.5 6t-12.5 15.5t-12 16.5t-12 7q-12 2 -32 -5t-32 -7q-10 0 -22 6q-14 16 -19.5 28t-7.5 41zM918 352q25 23 48 28t64 5q14 0 44 -1t42 -1q55 0 87 21.5t38 87.5 q-23 37 -65 38h-43q-2 33 12 33q10 0 39 -6q20 0 26 23q-12 20 -18 35.5t-6 35.5q0 39 37 62q-16 -20 -17 -31q0 -14 39 -39q39 -20 39 -43q4 -6 6 -20v-31q0 -61 -29.5 -111.5t-80.5 -89.5q-37 -16 -68 -16q-25 0 -82 12q-59 12 -76 12q-20 0 -36 -4zM1069 905q41 59 78 80 t70 21q18 -23 25 -28t24 -5q8 -14 -8.5 -25.5t-26.5 -11.5q-12 6 -24.5 12t-22.5 15q-29 0 -70 -29q-20 -14 -30.5 -20.5t-14.5 -8.5zM1133 4q18 53 90 125q35 35 59.5 60.5t34.5 41.5l14 -14v-59q0 -53 -2 -87t-12 -75zM1167 18l142 2l-2 170q-49 -49 -87 -90t-53 -82z M1214 47l52 68q16 4 18 -18.5t2 -35.5q-10 -6 -37 -6q-18 0 -30 -18zM1257 1077q13 -6 27 -11q10 -4 10 -10q0 -2 -2 -5l-30 -45z" />
<glyph unicode="a" horiz-adv-x="1230" d="M45 317q0 -135 41 -282q14 -14 32.5 -18.5t53.5 -4.5q23 0 53.5 3t53.5 8q-27 72 -40.5 144.5t-13.5 151.5q0 168 68 291q166 -2 338 -4t340 -2l18 -598h180q0 160 -6 416q-2 129 -4 242.5t-4 218t-3 221.5t-1 246l-12 18q-4 0 -10.5 1t-16.5 3h-45q-119 0 -248 -43 q-131 -41 -340 -172q-205 -160 -319.5 -377t-114.5 -463zM418 795q12 98 135 184q53 31 105.5 61.5t105.5 61.5q45 16 88 34.5t88 34.5q23 -70 24 -152.5t5 -205.5l-8 -8q-90 0 -271 -6q-92 -2 -158.5 -3t-113.5 -1z" />
<glyph unicode="b" horiz-adv-x="1212" d="M61 1376q0 -59 1 -161.5t4 -245.5q6 -289 11 -528.5t5 -436.5h53q33 0 74 -2t72 -2h53q268 0 463 53q188 51 321 219q27 43 36 78t9 76q0 113 -100 246q-45 57 -90 112.5t-90 110.5v23q78 61 123 123.5t45 142.5q0 49 -34 92t-83 72q-119 18 -233.5 25t-239.5 7 q-98 -2 -197 -3t-203 -1zM254 471q135 98 243.5 175t213.5 134q57 -70 96 -119t61 -79q23 -29 45.5 -66t44.5 -80q-37 -115 -133 -174q-96 -55 -198.5 -67.5t-264.5 -12.5l-28 -2q-43 0 -58.5 22.5t-15.5 67.5q0 4 1 16.5t3 35t3 41t1 32.5q0 20 -3 41t-11 35zM262 1085v84 l541 -12v-57q-133 -92 -264 -183.5t-273 -177.5v97q0 55 -2 126.5t-2 122.5z" />
<glyph unicode="c" horiz-adv-x="1142" d="M45 797q0 -104 33 -207t90 -191q117 -199 316.5 -298t445.5 -99q41 43 71.5 89t42.5 95q-229 0 -415.5 77t-309.5 249q-43 74 -68.5 147.5t-25.5 151.5q0 102 51 174q20 37 47 67.5t60 57.5q68 53 124 65.5t107 12.5q100 0 195.5 -48t163.5 -126q43 29 72.5 53.5 t48.5 54.5q-70 117 -193 185.5t-266 68.5q-188 0 -346 -114q-156 -113 -201 -244q-43 -133 -43 -221z" />
<glyph unicode="d" horiz-adv-x="1185" d="M59 1368q0 -82 1 -187.5t3 -234.5q4 -129 6.5 -245.5t4.5 -221.5q6 -207 6 -465q72 -8 122 -13t81 -9q63 -6 153 -6q186 0 341 48t255 165q55 59 82 145t27 184q0 160 -97 357q-94 197 -342 344q-240 149 -526 149h-4q-51 0 -102 -6zM264 205v966q197 -23 363 -127 q84 -53 141 -114.5t93 -125t52.5 -128t16.5 -121.5q0 -70 -18.5 -135.5t-57.5 -116.5q-80 -74 -183.5 -96.5t-252.5 -22.5q-35 0 -70 1t-69 1z" />
<glyph unicode="e" horiz-adv-x="1202" d="M59 1354q2 -16 4.5 -37t-2.5 -29q0 -109 7 -379q4 -135 7 -251.5t7 -219.5q6 -203 6 -426h18q33 -2 64 -2h61h21h24h27h31h37h41h45h53h59h70h78h90h102h117h133q2 27 3 55.5t1 61.5v27q0 14 -2 26l-852 -6l-49 21l-4 485l12 18l527 7q10 14 24.5 34.5t34.5 46.5 q41 53 53 95l-628 -4l-19 14l-10 276l14 17l684 8q-16 37 -26.5 63.5t-19.5 46t-17 36t-19 32.5l-768 12q-4 2 -14 2q-25 0 -25 -30z" />
<glyph unicode="f" horiz-adv-x="1056" d="M61 25l11 -25q16 0 54 -2t54 -2q39 0 70 10v19v129v22v25v30v31v39v43v49v58v65v74v84l12 22l463 -4q45 51 81 94t62 80l-602 4q-16 23 -21 51.5t-5 63.5q0 16 2 53t2 56q0 41 -6 69l14 21h786q-31 45 -61 90t-59 92q-211 2 -423 3t-434 1v-1345z" />
<glyph unicode="g" horiz-adv-x="1175" d="M49 674q0 -104 31 -230q35 -127 168 -264t250 -162q59 -10 102 -16t72 -6q70 0 131 15.5t115 56.5q0 -43 22.5 -57.5t63.5 -14.5q12 0 41.5 1t39.5 1q29 0 35 -2q-33 166 -79 321.5t-109 305.5l-195 10q31 -94 60.5 -191.5t42.5 -183.5q-47 -45 -82 -62.5t-86 -17.5 q-25 0 -47.5 4t-50 14.5t-61.5 28t-77 45.5q-86 55 -147 189q-59 137 -60 305q0 139 88 248q88 111 187 149q94 37 155 37q86 0 169 -40t151 -107q41 29 74.5 61.5t50.5 61.5q-39 61 -100.5 102t-133.5 61q-98 39 -204 39q-117 0 -223.5 -41t-194.5 -133t-143.5 -233.5 t-55.5 -294.5z" />
<glyph unicode="h" horiz-adv-x="1216" d="M59 1358l19 -1352l184 -2q10 57 10 102q-2 43 -4 89.5t-2 89.5q0 39 3 77.5t12 67.5q100 113 208 164q55 29 117 54.5t129 51.5q70 27 110 44.5t54 25.5q29 16 47 16q8 0 19 -2l8 -778q47 -8 98 -8q23 0 46.5 3t37.5 9q0 125 -6 412t-10 523.5t-4 422.5h-93q-53 0 -86 -6 l-12 -381q-41 -23 -101.5 -51.5t-142.5 -61.5q-80 -33 -144 -61.5t-114 -52.5q-47 -25 -93 -55.5t-87 -69.5l-10 741h-76q-43 0 -67.5 -1t-49.5 -11z" />
<glyph unicode="i" horiz-adv-x="335" d="M55 1360q0 -129 6 -408q6 -283 12.5 -518t6.5 -432q10 2 18 3t13 1q2 0 14 -1t27.5 -3t31 -3t25.5 -1q29 0 59 10l4 1352h-217z" />
<glyph unicode="j" horiz-adv-x="876" d="M23 102q0 -4 1 -9t3 -13q43 -39 98 -55.5t123 -16.5q43 0 96 9.5t88 17.5q227 100 309 280q82 178 82 445q0 41 -4 116.5t-12 186.5q-8 113 -11 187.5t-3 115.5l-170 2v-686q-23 -178 -56 -260q-35 -84 -88 -137q-39 -49 -98 -69.5t-133 -20.5q-43 0 -86 7t-78 15 q-14 -20 -37.5 -52t-23.5 -63z" />
<glyph unicode="k" horiz-adv-x="1193" d="M61 43l23 -35l168 10l6 439l305 327l27 9q111 -94 180.5 -213t103.5 -220q16 -49 33 -102t33 -113q33 -115 49 -125q18 -6 45 -6q2 0 11.5 1t29.5 3q39 6 64 7q-23 141 -52.5 267t-75.5 238.5t-114 212t-166 185.5v24q98 100 204.5 208t180.5 202l-231 -2l-609 -623 l-14 17l-16 604q-47 6 -82 6q-25 0 -49 -3t-47 -13q-2 -113 -2 -224t-2.5 -221t-2.5 -225v-234v-401z" />
<glyph unicode="l" horiz-adv-x="1169" d="M61 6l15 -18q10 0 50 -1t107.5 -3t122 -3t95.5 -1q123 0 227 11t191 41.5t157 82t125 131.5q-45 35 -85 64.5t-71 29.5q-53 -53 -121.5 -88t-150.5 -57q-16 0 -56 -3.5t-101.5 -7.5t-106.5 -6t-74 -2h-18q-12 0 -31 1t-38 3t-34 4q0 72 -1 166t-3 200.5t-3 218.5 t-3 220.5t-3 205.5t-1 175h-189l2 -258z" />
<glyph unicode="m" horiz-adv-x="1218" d="M61 1380l7 -1376l28 2l12 -1q13 -1 29.5 -3t33.5 -3t30 -1q33 0 61 12l2 989h10q16 -23 55.5 -80t101 -149t109.5 -160.5t83 -117.5q39 57 110 172q70 117 120 192.5t105 136.5v-114q0 -74 2.5 -180.5t2.5 -196.5q0 -88 2 -162q2 -72 3 -156t1 -180l188 -2l-4 1389h-186 q-23 -35 -55.5 -87.5t-73.5 -123.5q-80 -145 -123 -209q-20 -33 -48 -68t-63 -69l-346 552q-25 0 -49.5 1.5t-50.5 1.5q-29 0 -52.5 -2.5t-44.5 -6.5z" />
<glyph unicode="n" horiz-adv-x="1212" d="M61 1370q2 -117 2 -233v-232q2 -117 3 -237q0 -119 2 -244t2 -231v-193l176 -2v16q0 31 1 63t1 62v21v24v27v31v37v40v46v53v61v70v78v86v98v107l16 18q88 -66 167 -133.5t151 -138.5q143 -141 246.5 -309.5t134.5 -352.5q18 -2 48.5 -4t53.5 -2q20 0 41.5 1t44.5 3v1368 l-193 10l15 -891l-21 -12q-10 10 -78 115q-33 53 -58 88t-44 55q-164 143 -338 301q-176 160 -176 344z" />
<glyph unicode="o" horiz-adv-x="1163" d="M53 754q0 -63 7.5 -142.5t13.5 -152.5q49 -143 136 -257t212 -159q80 -20 170 -20q98 0 180 30.5t162 122.5t128 236.5t48 304.5q0 186 -66 364q-29 63 -69.5 116.5t-97.5 78.5q-74 41 -157 61.5t-169 20.5q-78 0 -147.5 -20.5t-124.5 -63.5q-127 -84 -176.5 -215 t-49.5 -305zM225 786q0 119 45.5 217.5t143.5 149.5q78 39 161 39q98 0 185.5 -49t138.5 -135q37 -133 37 -263q0 -158 -55 -294q-29 -68 -66 -119t-79 -84t-86 -49.5t-83 -16.5q-10 0 -20 1t-21 3q-20 2 -106 43t-139 195q-55 156 -56 362z" />
<glyph unicode="p" horiz-adv-x="1167" d="M61 23q8 -16 22.5 -21.5t37.5 -5.5q20 0 59 6t53 6v301l15 23q166 31 306 80t263 131q39 35 89 79t110 97q123 111 123 239q0 43 -15 86q-53 92 -126.5 156t-167 102.5t-205 55t-238.5 16.5q-74 0 -162 -6t-164 -14v-1331zM240 532l8 639l14 9q35 0 69 1t70 1 q258 0 371 -57.5t162 -166.5q0 -74 -62 -137q-53 -41 -104 -81t-104 -81q-76 -51 -195 -92q-53 -16 -104.5 -32.5t-102.5 -32.5z" />
<glyph unicode="q" horiz-adv-x="1220" d="M51 707q0 -190 69.5 -354.5t172.5 -241.5q49 -37 91 -59.5t79 -34t72.5 -15.5t72.5 -4q133 0 242 51q20 -31 52 -41t75 -10q4 0 18.5 1t43 3t49 3t36.5 1q-18 39 -39.5 71t-50.5 56q-12 20 -12 43q0 35 41 94q41 61 55 125q8 31 16.5 74t15.5 91t11 98.5t4 97.5 q0 117 -23.5 207t-78.5 163q-78 123 -197.5 179.5t-273.5 56.5q-158 0 -303 -102q-141 -98 -195 -254q-43 -152 -43 -299zM244 666v47q0 117 30.5 217t98.5 170q109 90 245 90q64 0 125 -23q55 -18 103.5 -62t85.5 -99q49 -109 49 -240q0 -100 -21.5 -197.5t-60.5 -195.5 q-20 33 -51 45t-78 12q-8 0 -27.5 -2t-50.5 -6q-59 -6 -80 -6l123 -211q-33 -33 -102 -33q-16 0 -43 3t-66 7q-74 12 -157 117q-82 106 -109 236q-8 63 -12 96q-2 14 -2 35z" />
<glyph unicode="r" horiz-adv-x="1189" d="M61 1358l9 -1362q31 -8 86 -8q27 2 49 2h49l12 16l-12 414l330 221q61 -61 110 -130t101 -167q23 -59 45 -119.5t45 -122.5q49 -120 149 -120h2q39 0 99 18v20q-109 365 -355 703v35q55 35 110.5 71.5t108.5 71.5q127 92 127 213q-31 72 -85 126t-132 101 q-78 20 -153.5 27.5t-169.5 7.5q-29 0 -92.5 -3t-162 -7t-165 -6t-105.5 -2zM252 997q0 49 2 91.5t8 91.5l586 -9q41 -14 41 -59q0 -29 -15 -49l-612 -406q0 63 -6 174q-2 55 -3 96.5t-1 69.5z" />
<glyph unicode="s" horiz-adv-x="1169" d="M43 336q0 -29 2 -50.5t8 -49.5q86 -47 143.5 -81t92.5 -51q70 -35 176 -66.5t219 -31.5q35 0 67.5 3t65.5 7q53 23 100.5 51.5t88.5 63.5q39 35 62.5 68.5t34.5 62.5t14 53.5t3 40.5q0 82 -47 150.5t-115 116.5q-61 43 -256 153q-94 53 -165.5 107.5t-118.5 111.5 q-6 18 -6 41q0 39 17 73t48 54q59 20 125 21q168 0 291 -117q14 16 57 49q45 37 51 68q-25 33 -51.5 56t-77.5 58q-53 35 -118.5 51.5t-139.5 16.5q-147 0 -272 -55q-59 -39 -97 -98.5t-38 -122.5q0 -195 205 -345q92 -53 181 -106t181 -107q102 -68 127 -96t25 -65 q0 -45 -30 -90t-73 -64q-76 -20 -155 -20q-106 0 -207 30q-102 33 -185 74q-41 23 -98 52.5t-133 70.5q-2 -25 -2 -47v-41z" />
<glyph unicode="t" horiz-adv-x="1134" d="M35 1004q25 14 67.5 35.5t106.5 54.5q125 63 250 63q0 -131 6 -360q8 -229 15 -426t7 -369q10 2 18.5 3t12.5 1q2 0 14.5 -1t27.5 -3t30.5 -3t25.5 -1q31 0 58 10v1149q72 16 143 17h35q20 0 41.5 -1.5t40.5 -1.5h29q51 12 81.5 63.5t53.5 123.5q-4 0 -43 1t-111 3 t-124 3t-83 1q-227 0 -396 -37.5t-300 -148.5z" />
<glyph unicode="u" horiz-adv-x="1191" d="M55 1165q6 -35 7 -72.5t1 -72.5v-23q0 -4 -1 -36.5t-3 -96.5q-2 -61 -2 -106v-70q0 -190 38 -326.5t153 -234.5q61 -68 147 -99.5t185 -31.5q82 0 168 22q68 27 126 72t106 103.5t85 128t61 143.5q12 70 13 160q0 162 -43 344q-41 180 -87 276t-79 96q-31 0 -88 -43 q-56 -41 -72 -49q86 -143 135 -285.5t49 -285.5q0 -145 -57 -281q-66 -104 -134.5 -163.5t-156.5 -59.5q-23 0 -28 2q-86 0 -164 51.5t-121 137.5q-33 104 -44 211.5t-11 248.5q0 41 1 102.5t3 141.5q6 162 6 238q-43 -18 -85 -51t-108 -91z" />
<glyph unicode="v" horiz-adv-x="1148" d="M43 936q0 -33 4 -60.5t10 -60.5q66 -143 156 -277.5t188.5 -251t180.5 -204.5t104 -88q12 0 38 6t38 6l203 809l-11 14l19 17l131 504q-18 8 -33.5 11t-44.5 3q-14 0 -44 -2t-40 -2q-45 -170 -84 -336t-73.5 -310.5t-66.5 -258t-59 -181.5q-131 129 -231 252t-141 209 q-20 43 -32.5 72t-19 50.5t-7.5 39.5t-1 39q0 39 8.5 81t30 91t58 107.5t92.5 132.5q-29 4 -53.5 7t-45.5 3h-28q-17 0 -74 -10q-80 -88 -126 -193.5t-46 -218.5z" />
<glyph unicode="w" horiz-adv-x="1210" d="M59 0h109q41 39 85 80t89 84q94 92 141 155l11 -321l170 -2q125 141 200 237q41 51 79 106.5t73 115.5q55 94 83.5 161.5t41 117.5t14.5 87t4 70q0 125 -41 240.5t-112 216.5q-39 0 -69 -26t-69 -67q55 -72 78 -154.5t23 -182.5q0 -166 -76 -312.5t-205 -294.5l-16 15 l4 780q-25 4 -43.5 6t-46.5 2q-49 0 -92 -14v-488q-39 -74 -97.5 -146.5t-130.5 -143.5l-12 14l4 950q-96 -39 -192 -123z" />
<glyph unicode="x" horiz-adv-x="1157" d="M57 1378q20 -39 50 -90t69 -117q80 -129 150.5 -243.5t126.5 -220.5q-176 -121 -287 -318q-106 -193 -107 -407l166 2q0 113 41 231q41 117 111 188q33 37 57.5 60.5t45 39t38 24t39.5 14.5q23 -37 64 -104.5t100 -168t101 -167t67 -101.5q33 -12 67 -12q8 0 56 8 q51 6 88 6l-389 657q180 125 281.5 314.5t101.5 412.5q-10 -2 -18.5 -3t-12.5 -1q-10 0 -42 4.5t-48 4.5q-33 0 -53 -13q0 -4 1 -11t3 -17v-27q0 -143 -73 -266t-202 -240h-35q-29 39 -55.5 78t-49 78t-52 92t-64.5 121q-72 135 -117 203l-210 4z" />
<glyph unicode="y" horiz-adv-x="1136" d="M53 6l332 -10q156 147 286 303t225 321.5t148.5 344t53.5 372.5l-11 23q-6 -2 -26 -2q-18 0 -36.5 1t-37.5 1q-25 0 -48.5 -3t-39.5 -11q-25 -236 -113 -450t-229 -400q-135 186 -218 404t-118 460h-164q0 -176 49.5 -354.5t130 -337t193.5 -336.5q-61 -84 -154.5 -156 t-222.5 -170z" />
<glyph unicode="z" horiz-adv-x="1179" d="M47 106q0 -27 3 -51t7 -51l752 -8q121 109 209 237q-109 -35 -203 -43q-47 -4 -106.5 -7t-130.5 -3h-150q-51 2 -88 2h-64l-18 11q23 100 64 176q23 41 73.5 113.5t132.5 179.5q88 8 234 18q143 12 186 141q-41 -2 -79 -4t-74 -2q-43 0 -73 5t-56 16q123 125 238.5 243.5 t225.5 200.5v84l-774 2q-49 -37 -89 -84t-54 -96q47 0 92 1t90 1q113 0 193 -4t151 -15q-51 -68 -111.5 -136t-129.5 -138q-20 -45 -50 -59.5t-75 -14.5q-16 0 -48 2t-44 2q-55 -49 -78 -76.5t-29 -68.5q8 2 31 2q41 0 98 -23q-41 -57 -74.5 -104t-60.5 -88 q-51 -80 -86 -171t-35 -190z" />
<glyph unicode="&#xa8;" horiz-adv-x="739" d="M57 1516q0 -47 33 -81t80 -34q49 0 82 33.5t33 81.5q0 47 -33 81.5t-82 34.5t-81 -33.5t-32 -82.5zM455 1516q0 -47 32.5 -81t81.5 -34q47 0 80 33.5t33 81.5q0 47 -33 81.5t-80 34.5q-51 0 -82.5 -33.5t-31.5 -82.5z" />
<glyph unicode="&#xdf;" horiz-adv-x="2330" d="M51 336q0 -29 3 -53.5t7 -46.5q78 -43 136.5 -75t99.5 -55q195 -100 395 -100q35 0 68 3t65 7q102 41 189 115q115 102 114 225q0 154 -161 267l-283 170q-172 100 -258 202q-6 18 -6 41q0 80 65 127q59 20 125 21q168 0 291 -117q16 14 30.5 26.5t31.5 26.5q41 35 47 64 q-129 182 -387 182q-147 0 -273 -55q-135 -90 -135 -221q0 -195 205 -345l362 -213q152 -90 152 -161q0 -47 -30 -91t-73 -63q-76 -20 -155 -20q-180 0 -420 118q-29 14 -79 41t-124 68q-2 -12 -2 -25v-20v-43zM1198 336q0 -29 3 -53.5t7 -46.5q78 -43 136.5 -75t99.5 -55 q195 -100 395 -100q35 0 67.5 3t65.5 7q102 41 189 115q115 102 114 225q0 154 -161 267l-283 170q-172 100 -258 202q-6 18 -6 41q0 80 65 127q59 20 125 21q168 0 291 -117q16 14 30.5 26.5t30.5 26.5q42 35 48 64q-129 182 -388 182q-147 0 -272 -55q-135 -90 -135 -221 q0 -195 205 -345l362 -213q152 -90 152 -161q0 -47 -30 -91t-73 -63q-76 -20 -155 -20q-180 0 -420 118q-29 14 -79 41t-124 68q-2 -12 -2 -25v-20v-43z" />
<glyph unicode="&#xe4;" horiz-adv-x="1224" d="M41 317q0 -135 41 -282q27 -23 86 -23q20 0 47 3t59 8q-53 141 -53 296q0 168 68 291q506 -6 678 -6l18 -598h180q0 92 -1 195.5t-3 220.5l-10 463q-2 78 -3 193.5t-1 271.5l-12 18q-4 0 -10.5 1t-16.5 3h-45q-150 0 -309 -65q-53 -23 -123 -60t-156 -90 q-205 -156 -317 -371q-117 -225 -117 -469zM414 795q14 106 135 184q47 31 99 61.5t112 61.5l176 69q29 -86 29 -358l-9 -8q-92 0 -272 -6q-92 -2 -158.5 -3t-111.5 -1zM469 1516q0 -47 34 -81t81 -34t80.5 33.5t33.5 81.5q0 47 -33.5 81.5t-80.5 34.5q-49 0 -82 -33.5 t-33 -82.5zM866 1516q0 -47 34 -81t81 -34t81 33.5t34 81.5q0 47 -34 81.5t-81 34.5q-49 0 -82 -33.5t-33 -82.5z" />
<glyph unicode="&#xf6;" horiz-adv-x="1155" d="M49 754q0 -23 2 -60t6 -84l13 -151q115 -334 348 -416q80 -20 170 -20q209 0 342 153q176 207 176 541q0 172 -47 313q-58 183 -187 246q-162 82 -325 82q-147 0 -273 -84q-225 -160 -225 -520zM221 786q0 256 168 357q82 49 182 49q215 0 324 -184q37 -133 37 -263 q0 -160 -53 -294q-45 -106 -123 -181q-88 -88 -193 -88q-227 0 -303 297q-39 147 -39 307zM274 1516q0 -47 33 -81t80 -34q49 0 82 33.5t33 81.5q0 47 -33 81.5t-82 34.5t-81 -33.5t-32 -82.5zM672 1516q0 -47 32.5 -81t81.5 -34q47 0 80 33.5t33 81.5q0 47 -32.5 81.5 t-80.5 34.5q-51 0 -82.5 -33.5t-31.5 -82.5z" />
<glyph unicode="&#xfc;" horiz-adv-x="1183" d="M51 1165q4 -35 7 -71.5t1 -73.5l-2 -154q-2 -78 -3 -122t-1 -56q0 -195 31 -305q43 -154 160 -256q123 -131 331 -131q94 0 168 22q131 49 238 181q92 117 141 266q12 70 13 160q0 162 -41 344q-90 373 -168 372q-31 0 -82 -38q-64 -48 -78 -54q184 -307 184 -571 q0 -152 -57 -281q-143 -223 -291 -223q-23 0 -29 2q-88 0 -164.5 53.5t-119.5 135.5q-55 174 -56 460q0 41 1.5 101.5t3.5 140.5q6 160 6 240q-41 -16 -101 -62q-23 -23 -92 -80zM244 1516q0 -47 33.5 -81t80.5 -34q49 0 82 33.5t33 81.5q0 47 -32.5 81.5t-82.5 34.5 q-49 0 -81.5 -33.5t-32.5 -82.5zM643 1516q0 -47 33 -81t80 -34q49 0 81.5 33.5t32.5 81.5q0 47 -32.5 81.5t-81.5 34.5t-81 -33.5t-32 -82.5z" />
<glyph unicode="&#x2000;" horiz-adv-x="816" />
<glyph unicode="&#x2001;" horiz-adv-x="1632" />
<glyph unicode="&#x2002;" horiz-adv-x="816" />
<glyph unicode="&#x2003;" horiz-adv-x="1632" />
<glyph unicode="&#x2004;" horiz-adv-x="544" />
<glyph unicode="&#x2005;" horiz-adv-x="408" />
<glyph unicode="&#x2006;" horiz-adv-x="272" />
<glyph unicode="&#x2007;" horiz-adv-x="272" />
<glyph unicode="&#x2008;" horiz-adv-x="204" />
<glyph unicode="&#x2009;" horiz-adv-x="326" />
<glyph unicode="&#x200a;" horiz-adv-x="90" />
<glyph unicode="&#x2018;" horiz-adv-x="317" d="M41 1327q0 -37 25.5 -66.5t52.5 -56.5q10 -10 61 -35q55 -23 64 -16q-23 25 -34 47.5t-11 34.5q0 18 34 47q37 27 37 45q0 47 -34.5 81t-79.5 34q-49 0 -82 -34t-33 -81z" />
<glyph unicode="&#x2019;" horiz-adv-x="319" d="M47 1327q0 -16 35 -45q37 -29 37 -47q0 -31 -45 -82q10 -4 63 18q54 25 62 33l41 41q37 39 36 82q0 47 -34.5 81t-79.5 34q-49 0 -82 -34t-33 -81z" />
<glyph unicode="&#x201a;" horiz-adv-x="319" d="M47 96q0 -12 35 -43q37 -31 37 -47q0 -31 -45 -82q8 -4 61 19q52 20 64 32q14 14 24 23.5t17 15.5q37 33 36 82q0 47 -33.5 81t-80.5 34q-49 0 -82 -33t-33 -82z" />
<glyph unicode="&#x201c;" horiz-adv-x="653" d="M51 1327q0 -37 25.5 -66.5t52.5 -56.5q10 -10 61 -35q55 -23 64 -16q-23 25 -34 47.5t-11 34.5q0 18 35 47q37 27 37 45q0 47 -35 81t-80 34q-49 0 -82 -34t-33 -81zM369 1327q0 -37 25 -66.5t52 -56.5q10 -10 62 -35q55 -23 63 -16q-23 25 -34 47.5t-11 34.5q0 18 35 47 q37 27 37 45q0 47 -35 81t-80 34q-49 0 -81.5 -34t-32.5 -81z" />
<glyph unicode="&#x201d;" horiz-adv-x="636" d="M55 1327q0 -16 35 -45q37 -29 37 -47q0 -31 -45 -82q10 -4 63 18q54 25 62 33l41 41q37 39 37 82q0 47 -35 81t-80 34q-49 0 -82 -34t-33 -81zM354 1327q0 -16 35 -45q37 -29 37 -47q0 -29 -47 -82q10 -4 63 18q56 25 64 33l41 41q37 39 37 82q0 47 -35 81t-80 34 q-49 0 -82 -34t-33 -81z" />
<glyph unicode="&#x201e;" horiz-adv-x="636" d="M55 96q0 -12 35 -43q37 -31 37 -47q0 -31 -45 -82q8 -4 61 19q52 20 64 32q14 14 24.5 23.5t16.5 15.5q37 33 37 82q0 47 -34 81t-81 34q-49 0 -82 -33t-33 -82zM354 96q0 -12 35 -43q37 -31 37 -47q0 -29 -47 -82q10 -4 63 19q52 20 64 32q14 14 24.5 23.5t16.5 15.5 q37 33 37 82q0 47 -34 81t-81 34q-49 0 -82 -33t-33 -82z" />
<glyph unicode="&#x2026;" horiz-adv-x="962" d="M59 98q0 -49 34 -80.5t81 -31.5q49 0 82 31.5t33 80.5q0 47 -33 81t-82 34t-82 -33t-33 -82zM367 98q0 -49 33.5 -80.5t80.5 -31.5q49 0 82 31.5t33 80.5q0 47 -33 81t-82 34t-81.5 -33t-32.5 -82zM674 98q0 -49 33.5 -80.5t80.5 -31.5q49 0 82 31.5t33 80.5 q0 47 -32.5 81t-82.5 34q-49 0 -81.5 -33t-32.5 -82z" />
<glyph unicode="&#x202f;" horiz-adv-x="326" />
<glyph unicode="&#x205f;" horiz-adv-x="408" />
<glyph unicode="&#x25fc;" horiz-adv-x="1392" d="M0 0v1393h1393v-1393h-1393z" />
</font>
</defs>
</svg>
